<?xml version="1.0" encoding="utf-8"?>
<!-- Generator: Adobe Illustrator 23.0.1, SVG Export Plug-In . SVG Version: 6.00 Build 0)  -->
<svg version="1.0" id="Layer_1" xmlns="http://www.w3.org/2000/svg" xmlns:xlink="http://www.w3.org/1999/xlink" x="0px" y="0px"
	 viewBox="0 0 227.663 116.448" enable-background="new 0 0 227.663 116.448" xml:space="preserve">
<g>
	<g>
		<g>
			<g>
				<path fill="#BF1E2D" d="M5.933,96.356l6.972-21.459c0.807-2.483,3.498-4,6.071-3.374l25.476,6.203
					c3.384,0.824,5.426,3.907,4.465,6.863l-8.3,25.547c-0.96,2.956-4.413,4.215-7.621,2.85L8.843,102.712
					C6.403,101.674,5.126,98.84,5.933,96.356z"/>
				<path fill="#EC1C24" d="M6.709,93.969l6.973-21.459c0.807-2.483,3.506-4.026,6.089-3.431l25.579,5.884
					c3.398,0.782,5.451,3.829,4.49,6.785l-8.3,25.546c-0.96,2.956-4.424,4.25-7.646,2.928l-24.256-9.955
					C7.187,99.261,5.902,96.452,6.709,93.969z"/>
			</g>
			<g>
				<path fill="#FFFFFF" d="M22.482,92.052l0.968-4.897c0.09-0.453,0.53-0.748,0.983-0.658l3.282,0.649
					c1.359,0.269,2.679-0.616,2.948-1.975l0,0c0.269-1.359-0.616-2.679-1.975-2.948l-4.923-0.973
					c-1.359-0.269-2.244-1.588-1.975-2.948l0,0c0.269-1.359,1.588-2.244,2.948-1.975l5.744,1.135
					c4.376,0.865,6.132,3.485,5.267,7.861l-0.324,1.641c-0.865,4.376-3.485,6.132-7.861,5.267l-0.157,0.795
					c-0.092,0.467-0.546,0.771-1.014,0.679l-3.23-0.638C22.693,92.973,22.389,92.52,22.482,92.052z M26.751,96.333l-0.648,3.282
					c-0.09,0.453-0.53,0.748-0.983,0.658l-3.282-0.649c-0.453-0.089-0.748-0.529-0.658-0.983l0.649-3.282
					c0.089-0.453,0.53-0.748,0.983-0.658l3.282,0.648C26.546,95.44,26.841,95.88,26.751,96.333z"/>
			</g>
		</g>
		<g>
			<path fill="#44AABC" d="M79.413,49.77l11.456-20.795c1.326-2.406,0.554-5.564-1.779-7.088L65.995,6.794
				c-3.068-2.005-6.904-1.353-8.482,1.511L43.876,33.061c-1.578,2.865-0.06,6.421,3.296,7.902L72.44,52.11
				C74.993,53.236,78.087,52.176,79.413,49.77z"/>
			<path fill="#00B1C3" d="M80.688,47.456l11.456-20.795c1.326-2.406,0.568-5.588-1.748-7.144L67.471,4.115
				c-3.045-2.046-6.862-1.429-8.44,1.436L45.393,30.306c-1.578,2.865-0.079,6.455,3.255,7.977L73.746,49.74
				C76.281,50.897,79.362,49.862,80.688,47.456z"/>
			<g>
				<path fill="#FFFFFF" d="M59.995,33.439c0.45-0.012,0.905-0.007,1.367,0.015c0.117,0.006,0.235,0.013,0.356,0.02
					c0.651,0.042,1.181,0.545,1.252,1.194c0,0.004,0.001,0.007,0.001,0.011c0.037,0.341,0.052,0.666,0.046,0.976
					c-0.006,0.307-0.035,0.628-0.084,0.961c-0.001,0.009-0.003,0.017-0.004,0.026c-0.09,0.602-0.577,1.066-1.181,1.135
					c-0.122,0.014-0.242,0.027-0.361,0.038c-0.429,0.042-0.853,0.068-1.271,0.08c-0.419,0.011-0.843,0.008-1.273-0.011
					c-0.119-0.005-0.239-0.012-0.362-0.019c-0.608-0.036-1.119-0.474-1.241-1.07c-0.002-0.008-0.003-0.017-0.005-0.025
					c-0.068-0.33-0.113-0.649-0.136-0.955c-0.023-0.309-0.026-0.635-0.007-0.977c0-0.003,0-0.007,0.001-0.01
					c0.036-0.652,0.538-1.183,1.186-1.26c0.12-0.014,0.238-0.028,0.354-0.04C59.09,33.481,59.545,33.451,59.995,33.439z
					 M55.747,16.007c-0.068-0.731,0.462-1.38,1.192-1.465c0.234-0.027,0.465-0.049,0.695-0.066c0.651-0.046,1.265-0.078,1.846-0.094
					c0.58-0.016,1.188-0.017,1.826-0.006c0.24,0.004,0.486,0.015,0.738,0.031c0.725,0.047,1.278,0.67,1.25,1.397l-0.541,13.837
					c-0.025,0.65-0.512,1.192-1.157,1.282c-0.146,0.02-0.285,0.038-0.417,0.052c-0.439,0.049-0.855,0.079-1.248,0.089
					c-0.465,0.013-1.019-0.007-1.664-0.06c-0.651-0.053-1.171-0.567-1.231-1.218L55.747,16.007z"/>
			</g>
		</g>
		<g>
			<path fill="#FFE039" d="M110.661,61.472c10.763-10.382,10.919-27.623,0.222-38.195c-10.028-9.911-26.265-10.248-36.693-0.758
				c-5.796,5.274-8.716,12.47-8.732,19.681c-0.013,5.754-2.309,11.267-6.451,15.262l-2.522,2.433
				c-0.366,0.353-0.376,0.935-0.024,1.3l15.47,16.039c0.353,0.366,0.935,0.376,1.3,0.023l2.62-2.527
				c4.121-3.975,9.695-5.988,15.417-5.8C98.224,69.158,105.258,66.684,110.661,61.472z"/>
			<path fill="#757C80" d="M49.376,70.972c-2.069,1.995-0.941,6.521,2.52,10.109c3.46,3.588,7.942,4.878,10.011,2.883
				c1.771-1.708,1.198-5.269-1.173-8.509c0.244-0.766-0.264-1.373-0.899-2.031c-0.635-0.658-1.223-1.188-1.997-0.972
				C54.685,69.965,51.146,69.264,49.376,70.972z"/>
			
				<rect x="48.811" y="67.361" transform="matrix(0.6942 0.7197 -0.7197 0.6942 71.1414 -20.6156)" fill="#757C80" width="22.047" height="12.124"/>
			<g>
				<defs>
					<path id="SVGID_1_" d="M68.268,79.762L53.804,64.766c-0.677-0.702-0.657-1.821,0.045-2.498l0.618-0.596
						c0.702-0.677,1.821-0.657,2.498,0.045L71.43,76.712c0.677,0.702,0.657,1.821-0.045,2.498l-0.618,0.596
						C70.064,80.484,68.946,80.464,68.268,79.762z M66.824,83.609l0.618-0.596c0.702-0.677,0.722-1.796,0.045-2.498L53.023,65.52
						c-0.677-0.702-1.796-0.722-2.498-0.045l-0.618,0.596c-0.702,0.677-0.722,1.796-0.045,2.498l14.464,14.996
						C65.003,84.267,66.121,84.287,66.824,83.609z M62.881,87.412l0.618-0.596c0.702-0.677,0.722-1.796,0.045-2.498L49.08,69.322
						c-0.677-0.702-1.796-0.722-2.498-0.045l-0.618,0.596c-0.702,0.677-0.722,1.796-0.045,2.498l14.464,14.996
						C61.06,88.069,62.179,88.09,62.881,87.412z"/>
				</defs>
				<clipPath id="SVGID_2_">
					<use xlink:href="#SVGID_1_"  overflow="visible"/>
				</clipPath>
				<path clip-path="url(#SVGID_2_)" fill="#ADB1B7" d="M68.268,79.762L53.804,64.766c-0.677-0.702-0.657-1.821,0.045-2.498
					l0.618-0.596c0.702-0.677,1.821-0.657,2.498,0.045L71.43,76.712c0.677,0.702,0.657,1.821-0.045,2.498l-0.618,0.596
					C70.064,80.484,68.946,80.464,68.268,79.762z M66.824,83.609l0.618-0.596c0.702-0.677,0.722-1.796,0.045-2.498L53.023,65.52
					c-0.677-0.702-1.796-0.722-2.498-0.045l-0.618,0.596c-0.702,0.677-0.722,1.796-0.045,2.498l14.464,14.996
					C65.003,84.267,66.121,84.287,66.824,83.609z M62.881,87.412l0.618-0.596c0.702-0.677,0.722-1.796,0.045-2.498L49.08,69.322
					c-0.677-0.702-1.796-0.722-2.498-0.045l-0.618,0.596c-0.702,0.677-0.722,1.796-0.045,2.498l14.464,14.996
					C61.06,88.069,62.179,88.09,62.881,87.412z"/>
				
					<rect x="49.073" y="59.371" transform="matrix(0.6942 0.7198 -0.7198 0.6942 64.9243 -16.5932)" clip-path="url(#SVGID_2_)" fill="#CFD2D7" width="5.836" height="17.488"/>
				
					<rect x="62.328" y="72.874" transform="matrix(0.6942 0.7197 -0.7197 0.6942 78.6235 -21.8393)" clip-path="url(#SVGID_2_)" fill="#969B9F" width="5.376" height="17.488"/>
			</g>
			<path fill="#FFCD39" d="M110.883,23.277c-10.028-9.911-26.265-10.249-36.693-0.758c-5.796,5.274-8.716,12.47-8.732,19.681
				c-0.013,5.754-2.309,11.267-6.451,15.262l-2.522,2.433c-0.366,0.353-0.376,0.935-0.024,1.3l15.47,16.039
				c0.353,0.366,0.935,0.376,1.3,0.023l2.62-2.527c4.121-3.975,9.695-5.988,15.417-5.8c6.954,0.228,13.987-2.246,19.391-7.458
				C121.424,51.09,121.58,33.849,110.883,23.277z M93.059,44.28c-9.561,1.665-18.397-3.212-19.735-10.894
				c-1.338-7.682,5.328-15.26,14.89-16.925c9.561-1.666,18.397,3.212,19.735,10.894C109.287,35.037,102.62,42.614,93.059,44.28z"/>
			<path fill="#FBB33F" d="M110.883,23.277c-10.028-9.911-26.265-10.249-36.693-0.758c-5.796,5.274-8.716,12.47-8.732,19.681
				c-0.013,5.754-2.309,11.267-6.451,15.262l-2.522,2.433c-0.366,0.353-0.376,0.935-0.024,1.3l15.47,16.039
				c0.353,0.366,0.935,0.376,1.3,0.023l2.62-2.527c4.121-3.975,9.695-5.988,15.417-5.8c6.954,0.228,13.987-2.246,19.391-7.458
				C121.424,51.09,121.58,33.849,110.883,23.277z M96.991,54.933c-11.991,4.426-24.784-0.308-28.574-10.575
				c-3.789-10.266,2.86-22.177,14.851-26.603c11.992-4.426,24.785,0.308,28.574,10.575C115.631,38.596,108.982,50.507,96.991,54.933
				z"/>
			<path fill="#E9A73B" d="M65.668,70.79l-0.805-0.92l17.596-15.376l-2.89-2.997l-16.001,17.03l-0.891-0.837l16.042-17.073
				l-2.525-2.618c-1.746-1.81-1.693-4.702,0.116-6.448l1.044-1.007c1.81-1.746,4.702-1.693,6.448,0.116
				c1.69,1.752,1.708,4.514,0.041,6.288l-3.436,3.657l2.974,3.083l3.779-3.302c1.833-1.602,4.593-1.484,6.283,0.268
				c1.746,1.81,1.693,4.702-0.116,6.448l-1.044,1.007c-1.81,1.746-4.702,1.693-6.448-0.116l-2.525-2.618L65.668,70.79z
				 M84.23,54.569l2.484,2.575c1.278,1.324,3.395,1.363,4.72,0.085l1.044-1.007c1.325-1.278,1.363-3.395,0.085-4.719
				c-1.237-1.282-3.257-1.369-4.599-0.196L84.23,54.569z M82.922,41.508c-1.278-1.325-3.395-1.363-4.72-0.085l-1.044,1.007
				c-1.325,1.278-1.363,3.395-0.085,4.72l2.483,2.575l3.395-3.614C84.172,44.812,84.159,42.79,82.922,41.508z"/>
			<path fill="#FFFFFF" d="M100.486,24.854c-1.863,0.187-3.466-0.586-3.58-1.727c-0.115-1.141,1.302-2.217,3.165-2.404
				c1.863-0.187,3.466,0.586,3.58,1.727C103.766,23.59,102.349,24.667,100.486,24.854z"/>
			<path fill="#FFFFFF" d="M91.815,26.072c-0.909,0.091-1.715-0.52-1.8-1.364c-0.085-0.845,0.583-1.604,1.493-1.695
				c0.909-0.091,1.715,0.52,1.8,1.364C93.393,25.221,92.725,25.98,91.815,26.072z"/>
		</g>
		<g>
			
				<ellipse transform="matrix(1 -0.0043 0.0043 1 -0.2476 0.193)" fill="#85B040" cx="44.743" cy="57.671" rx="20.762" ry="19.684"/>
			
				<ellipse transform="matrix(1 -0.0043 0.0043 1 -0.2327 0.1933)" fill="#A4CD39" cx="44.728" cy="54.09" rx="20.762" ry="19.684"/>
			<path fill="#FFFFFF" d="M33.33,52.336l-0.007,0.006c-1.396,1.215-1.535,3.413-0.305,4.795l5.726,6.431
				c1.134,1.274,3.022,1.381,4.294,0.243l14.065-12.58c1.367-1.223,1.492-3.397,0.273-4.767l0,0
				c-1.138-1.278-3.034-1.381-4.305-0.233l-11.01,9.94c-0.402,0.363-1.001,0.33-1.36-0.074l-3.108-3.49
				C36.469,51.346,34.604,51.227,33.33,52.336z"/>
		</g>
	</g>
	<g>
		<path fill="#EC1C24" d="M77.384,34.913c0.049-0.033,0.243-0.099,0.58-0.198c0.337-0.099,0.703-0.201,1.098-0.308
			c0.395-0.107,0.769-0.21,1.123-0.308c0.353-0.098,0.588-0.164,0.703-0.197c0.329,0.526,0.724,1.164,1.184,1.912
			c0.46,0.749,0.954,1.534,1.48,2.356c0.592,1.53,1.296,3.018,2.11,4.466c0.814,1.448,1.76,2.714,2.837,3.8
			c1.077,1.085,2.291,1.929,3.64,2.529c1.348,0.601,2.854,0.827,4.515,0.679c1.201-0.082,2.261-0.362,3.183-0.839
			c0.921-0.477,1.715-1.077,2.381-1.801c0.666-0.724,1.197-1.55,1.592-2.48c0.395-0.929,0.666-1.895,0.814-2.899
			c0.148-1.003,0.173-2.011,0.074-3.023c-0.099-1.012-0.313-1.97-0.642-2.875c-0.346-0.23-0.728-0.403-1.147-0.518
			c-0.42-0.115-0.847-0.181-1.283-0.198c-0.436-0.016-0.868,0.013-1.296,0.087c-0.428,0.074-0.822,0.177-1.184,0.308
			c-0.165,0.066-0.313,0.132-0.444,0.198c0.279,0.691,0.419,1.406,0.419,2.147c0,0.823-0.157,1.587-0.469,2.294
			c-0.313,0.707-0.732,1.32-1.258,1.838c-0.526,0.518-1.151,0.925-1.875,1.221c-0.576,0.247-1.184,0.395-1.826,0.444h-0.419
			c-0.592,0-1.144-0.074-1.653-0.222c-0.247-0.082-0.494-0.181-0.74-0.296c-0.724-0.345-1.341-0.81-1.85-1.394
			c-0.51-0.584-0.901-1.266-1.172-2.048c-0.271-0.781-0.407-1.616-0.407-2.504c0-1.184,0.213-2.327,0.641-3.429
			c0.428-1.102,1.045-2.076,1.851-2.924c0.806-0.847,1.78-1.53,2.924-2.048c1.143-0.518,2.422-0.793,3.837-0.827
			c1.365-0.033,2.665,0.123,3.898,0.469c1.234,0.345,2.381,0.839,3.442,1.48c1.061,0.641,2.023,1.411,2.887,2.307
			c0.863,0.897,1.616,1.883,2.258,2.96c0.642,1.078,1.16,2.229,1.554,3.454c0.395,1.225,0.649,2.488,0.764,3.787
			c0.181,1.974,0.119,3.747-0.185,5.317c-0.305,1.571-0.777,2.97-1.419,4.195c-0.642,1.226-1.406,2.282-2.295,3.171
			c-0.888,0.888-1.83,1.633-2.825,2.233c-0.995,0.6-2.003,1.065-3.023,1.394c-1.02,0.329-1.966,0.543-2.837,0.642
			c-1.777,0.197-3.459,0.074-5.046-0.37c-1.588-0.444-3.081-1.164-4.478-2.159c-1.399-0.995-2.702-2.233-3.911-3.713
			c-1.209-1.481-2.319-3.154-3.331-5.021c-1.012-1.867-1.916-3.906-2.714-6.119C78.647,39.67,77.96,37.347,77.384,34.913z"/>
		<path fill="#EC1C24" d="M137.069,42.265h0.469c0.642,0.049,1.25,0.197,1.826,0.444c0.312,0.132,0.608,0.288,0.888,0.469
			c0.032,0.016,0.065,0.041,0.098,0.074l0.05,0.05l0.049,0.025l0.05,0.049l0.098,0.049c0.099,0.083,0.189,0.157,0.271,0.222
			c0.214,0.181,0.42,0.387,0.617,0.617c0.526,0.609,0.897,1.341,1.111,2.196c0.065,0.28,0.107,0.576,0.123,0.888
			c0.016,0.148,0.025,0.296,0.025,0.444c0,0.642-0.099,1.242-0.296,1.801c-0.132,0.494-0.346,0.987-0.642,1.481
			c-0.362,0.609-0.864,1.135-1.505,1.579c-0.642,0.444-1.427,0.773-2.356,0.987c-0.929,0.214-2.011,0.222-3.244,0.025
			c-1.053-0.198-2.114-0.629-3.183-1.296c-1.069-0.666-2.011-1.526-2.825-2.578c-0.814-1.053-1.439-2.286-1.875-3.701
			c-0.436-1.414-0.555-2.985-0.358-4.712c0.247-1.481,0.765-2.813,1.554-3.997c0.79-1.184,1.727-2.134,2.813-2.85
			c1.085-0.715,2.261-1.155,3.528-1.32c1.266-0.165,2.492,0.016,3.677,0.543c0.345,0.181,0.682,0.35,1.011,0.506
			c0.329,0.157,0.65,0.329,0.963,0.518c0.312,0.189,0.621,0.407,0.925,0.654c0.304,0.247,0.621,0.543,0.95,0.888
			c0.082-0.263,0.201-0.551,0.358-0.864c0.156-0.312,0.358-0.625,0.604-0.937c0.247-0.313,0.546-0.609,0.9-0.888
			c0.353-0.28,0.769-0.51,1.246-0.691c0.329-0.016,0.724,0.041,1.184,0.173c0.461,0.132,0.929,0.313,1.406,0.543
			c0.477,0.231,0.933,0.485,1.369,0.765c0.436,0.28,0.794,0.559,1.073,0.839c0.329,0.51,0.534,1.036,0.617,1.579
			c0.049,0.329,0.107,0.642,0.173,0.937c0-0.395,0.008-0.789,0.025-1.184c0.016-1.118,0.025-2.13,0.025-3.035v-2.22h-24.896
			l-3.257-3.726l0.839-1.604h34.222l2.418,2.492l0.025,0.025l1.061,1.086l-1.061,1.727h-1.85v7.254c0,1.102,0.004,2.163,0.012,3.183
			c0.008,1.02,0.013,1.925,0.013,2.714c0,1.102,0.008,2.237,0.025,3.405c0.016,1.168,0.037,2.278,0.062,3.331
			c0.025,1.053,0.049,1.995,0.074,2.825c0.025,0.831,0.053,1.46,0.086,1.887c-0.148,0.165-0.37,0.387-0.666,0.666
			c-0.296,0.28-0.605,0.559-0.925,0.839c-0.321,0.279-0.621,0.539-0.9,0.777c-0.28,0.238-0.477,0.391-0.592,0.456
			c-0.148-0.098-0.362-0.259-0.642-0.481c-0.28-0.222-0.596-0.469-0.95-0.74c-0.354-0.271-0.72-0.559-1.098-0.863
			c-0.379-0.304-0.736-0.6-1.073-0.888c-0.337-0.288-0.633-0.547-0.888-0.777c-0.256-0.23-0.432-0.411-0.531-0.543
			c0.033-0.937,0.065-1.977,0.099-3.121c0.032-1.144,0.065-2.332,0.098-3.566c0.033-1.052,0.066-2.113,0.099-3.183
			c-0.066-0.543-0.181-1.028-0.345-1.456c-0.198-0.51-0.424-0.95-0.679-1.32c-0.255-0.37-0.522-0.682-0.802-0.937
			c-0.28-0.255-0.526-0.465-0.74-0.629c-0.165,0.23-0.288,0.416-0.37,0.555c-0.083,0.14-0.153,0.271-0.21,0.395
			c-0.057,0.123-0.107,0.251-0.148,0.383c-0.041,0.132-0.111,0.304-0.21,0.518c-0.132,0.345-0.243,0.728-0.333,1.147
			c-0.091,0.419-0.095,0.835-0.013,1.246c-0.148,0.049-0.374,0.116-0.678,0.198c-0.305,0.082-0.625,0.173-0.963,0.271
			c-0.337,0.098-0.646,0.185-0.925,0.259c-0.28,0.074-0.453,0.12-0.518,0.136c-0.165-0.51-0.379-0.999-0.642-1.468
			c-0.264-0.469-0.543-0.909-0.839-1.32c-0.296-0.411-0.604-0.781-0.925-1.11c-0.321-0.329-0.613-0.609-0.876-0.839
			c-0.806-0.361-1.657-0.506-2.554-0.432c-0.897,0.074-1.748,0.308-2.554,0.703c-0.625,0.28-1.172,0.654-1.641,1.123
			c-0.469,0.469-0.848,0.983-1.135,1.542c-0.288,0.559-0.473,1.127-0.555,1.702c-0.033,0.329-0.041,0.634-0.025,0.913
			c0.049-0.148,0.107-0.296,0.173-0.444c0.296-0.674,0.695-1.262,1.197-1.764c0.501-0.502,1.081-0.892,1.74-1.172
			C135.704,42.43,136.362,42.282,137.069,42.265z"/>
		<path fill="#EC1C24" d="M168.701,48.508c0-0.757,0.144-1.472,0.431-2.147c0.288-0.674,0.679-1.262,1.172-1.764
			c0.494-0.502,1.069-0.892,1.727-1.172c0.444-0.197,0.913-0.328,1.406-0.395c0.033-0.148,0.05-0.304,0.05-0.469
			c0.032-0.378,0.025-0.753-0.025-1.123c-0.049-0.37-0.123-0.719-0.222-1.049c-0.329-0.131-0.675-0.198-1.036-0.198
			c-0.346-0.016-0.683,0.009-1.012,0.074c-0.05,0.165-0.107,0.321-0.173,0.469c-0.296,0.675-0.699,1.267-1.209,1.776
			c-0.51,0.51-1.106,0.913-1.789,1.209c-0.683,0.296-1.419,0.444-2.208,0.444c-0.773,0-1.501-0.148-2.183-0.444
			c-0.683-0.296-1.279-0.699-1.789-1.209c-0.51-0.509-0.913-1.106-1.209-1.789c-0.296-0.682-0.444-1.41-0.444-2.183
			c0-0.79,0.148-1.526,0.444-2.208c0.296-0.682,0.699-1.279,1.209-1.789c0.509-0.51,1.102-0.913,1.776-1.209
			c0.428-0.18,0.864-0.304,1.308-0.37c-0.033-0.082-0.082-0.164-0.148-0.247c-0.231-0.263-0.539-0.51-0.925-0.74
			c-0.387-0.23-0.827-0.436-1.32-0.617l-0.049-0.025h-2.492l-0.913-1.061c-0.131-0.033-0.247-0.065-0.345-0.099h0.246l-2.245-2.566
			l0.839-1.604h42.635l2.418,2.492l1.085,1.11l-1.061,1.727h-12.213v2.048c0.872-0.016,1.694,0.049,2.467,0.197
			c1.217,0.231,2.323,0.597,3.319,1.098c0.995,0.502,1.883,1.119,2.664,1.851c0.781,0.732,1.435,1.542,1.962,2.43
			c0.526,0.888,0.929,1.83,1.209,2.825c0.28,0.996,0.42,2.011,0.42,3.047c0,0.922-0.111,1.826-0.333,2.714
			c-0.222,0.888-0.576,1.682-1.061,2.381c-0.485,0.7-1.106,1.263-1.862,1.69c-0.757,0.428-1.678,0.642-2.764,0.642h-0.296
			c-0.642-0.033-1.242-0.164-1.801-0.395c-0.658-0.28-1.238-0.658-1.739-1.135c-0.502-0.477-0.9-1.036-1.197-1.678
			c-0.296-0.642-0.444-1.332-0.444-2.073c0-0.74,0.135-1.431,0.407-2.073c0.272-0.642,0.646-1.201,1.123-1.678
			c0.477-0.477,1.036-0.855,1.678-1.135c0.642-0.279,1.332-0.419,2.073-0.419c0.23,0,0.452,0.017,0.666,0.049
			c0.049-0.082,0.09-0.164,0.123-0.247c0.099-0.23,0.176-0.46,0.234-0.691c0.057-0.23,0.119-0.469,0.185-0.715
			c-0.592-0.296-1.283-0.436-2.073-0.42c-0.789,0.017-1.596,0.103-2.418,0.259c-0.822,0.156-1.637,0.35-2.443,0.58
			c-0.049,0-0.09,0.008-0.123,0.025c0,0.937-0.008,1.818-0.025,2.64v8.217c0,0.411,0.004,0.765,0.013,1.061
			c0.008,0.296,0.012,0.629,0.012,0.999c0,0.37,0.004,0.827,0.012,1.369c0.008,0.543,0.013,1.258,0.013,2.147
			c-0.083,0.065-0.256,0.213-0.518,0.444c-0.263,0.231-0.543,0.473-0.839,0.728c-0.296,0.255-0.576,0.497-0.839,0.728
			c-0.263,0.23-0.453,0.386-0.568,0.469c-0.115-0.083-0.308-0.214-0.58-0.395c-0.271-0.181-0.584-0.386-0.937-0.617
			c-0.354-0.231-0.728-0.477-1.123-0.74c-0.395-0.263-0.773-0.514-1.135-0.753c-0.362-0.238-0.687-0.456-0.975-0.654
			c-0.288-0.198-0.506-0.346-0.654-0.444c-0.099-0.361-0.276-0.748-0.531-1.16c-0.255-0.411-0.58-0.797-0.975-1.159
			c-0.395-0.362-0.872-0.667-1.431-0.913c-0.313-0.148-0.634-0.262-0.963-0.345c-0.082,0.099-0.173,0.189-0.271,0.271
			c-0.494,0.494-1.078,0.884-1.752,1.172c-0.675,0.288-1.39,0.432-2.147,0.432c-0.773,0-1.493-0.144-2.159-0.432
			c-0.666-0.288-1.246-0.678-1.739-1.172c-0.494-0.494-0.885-1.073-1.172-1.74C168.845,50,168.701,49.281,168.701,48.508z
			 M179.631,45.892c0.411,0.329,0.794,0.728,1.147,1.196c0.354,0.469,0.674,0.942,0.962,1.419c0.288,0.477,0.522,0.913,0.703,1.308
			c0.049,0.083,0.09,0.165,0.123,0.247l0.123-0.099c-0.066-0.444-0.12-0.937-0.16-1.48c-0.041-0.543-0.062-1.25-0.062-2.122v-2.516
			c0.016-0.822,0.025-1.694,0.025-2.615c-0.378-0.099-0.749-0.238-1.11-0.42c-0.872-0.395-1.69-0.859-2.455-1.394
			c-0.765-0.534-1.448-1.081-2.048-1.641c-0.601-0.559-1.048-1.012-1.345-1.357c-0.428-0.494-0.831-1.024-1.209-1.591
			c-0.379-0.568-0.715-1.148-1.012-1.74c-0.296-0.576-0.518-1.16-0.666-1.752h-4.416c0.033,0.083,0.074,0.165,0.123,0.247
			c0.263,0.543,0.395,1.102,0.395,1.678c0.806,0.115,1.583,0.366,2.332,0.752c0.748,0.387,1.456,0.839,2.122,1.357
			c0.666,0.518,1.279,1.061,1.838,1.628c0.559,0.568,1.053,1.082,1.48,1.542c0.312,0.345,0.666,0.822,1.061,1.431
			c0.395,0.609,0.757,1.263,1.086,1.961c0.329,0.699,0.588,1.403,0.777,2.11C179.635,44.749,179.696,45.366,179.631,45.892z
			 M182.592,33.259c0-0.724,0.008-1.365,0.025-1.925h-3.035c-0.099,0.165-0.189,0.337-0.271,0.518
			c-0.23,0.461-0.399,0.913-0.506,1.357c-0.107,0.444-0.095,0.814,0.037,1.11c0.444,0.231,0.884,0.374,1.32,0.432
			c0.436,0.058,0.884,0.07,1.345,0.037c0.345-0.016,0.699-0.057,1.061-0.123C182.567,34.189,182.575,33.72,182.592,33.259z"/>
	</g>
	<g>
		<path fill="#00B1C3" d="M221.971,103.508l-8.985-14.062l8.985-14.411h-17.039v15.099c0,0.033-0.016,0.06-0.018,0.092
			c-0.009,0.135-0.034,0.265-0.079,0.393c-0.019,0.053-0.038,0.103-0.063,0.154c-0.054,0.112-0.125,0.213-0.208,0.309
			c-0.032,0.036-0.056,0.076-0.091,0.11c-0.012,0.012-0.019,0.027-0.032,0.039l-13.841,12.278H221.971z"/>
		<path fill="#00B1C3" d="M65.039,103.508L51.198,91.23c-0.013-0.011-0.02-0.027-0.032-0.039c-0.035-0.033-0.06-0.073-0.091-0.11
			c-0.083-0.096-0.154-0.197-0.208-0.309c-0.025-0.05-0.044-0.1-0.063-0.154c-0.045-0.127-0.07-0.258-0.079-0.393
			c-0.002-0.032-0.019-0.059-0.019-0.092V75.034H33.667l8.985,14.411l-8.985,14.062H65.039z"/>
		<polygon fill="#1E75BB" points="188.39,103.508 201.814,91.599 188.39,91.599 		"/>
		<polygon fill="#1E75BB" points="67.248,91.599 53.823,91.599 67.248,103.508 		"/>
		<polygon fill="#00B1C3" points="52.171,61.66 52.171,90.134 67.248,90.134 188.39,90.134 203.467,90.134 203.467,61.66 		"/>
	</g>
	<g>
		<g opacity="0.75">
			<path fill="#231F20" d="M71.863,77.051c0-0.337,0.063-0.656,0.189-0.96c0.126-0.303,0.301-0.568,0.524-0.795
				c0.223-0.227,0.486-0.408,0.789-0.543c0.286-0.118,0.594-0.185,0.922-0.202h0.202c0.379,0.017,0.774,0.088,1.187,0.215
				c0.446,0.135,0.854,0.355,1.225,0.662c0.37,0.308,0.674,0.712,0.909,1.212c0.236,0.501,0.353,1.113,0.353,1.837
				c0,0.463-0.04,0.92-0.12,1.37c-0.08,0.45-0.214,0.903-0.404,1.357c-0.189,0.455-0.44,0.915-0.751,1.382
				c-0.312,0.467-0.703,0.953-1.174,1.458c-0.253,0.278-0.524,0.537-0.815,0.777c-0.29,0.24-0.578,0.448-0.865,0.625
				c-0.286,0.177-0.566,0.322-0.84,0.436c-0.274,0.114-0.524,0.183-0.751,0.208c-0.253,0.033-0.53,0.01-0.834-0.07
				c-0.303-0.08-0.61-0.202-0.921-0.366c-0.312-0.164-0.617-0.362-0.916-0.593c-0.299-0.232-0.566-0.474-0.802-0.726
				c-0.219-0.236-0.425-0.48-0.619-0.732c-0.193-0.252-0.366-0.503-0.517-0.751c-0.152-0.248-0.272-0.493-0.36-0.732
				c-0.089-0.24-0.133-0.465-0.133-0.675l0.013-8.976h-0.972l-1.439-1.578l0.391-0.707h9.204c0.185-0.109,0.366-0.223,0.543-0.341
				c0.219-0.143,0.406-0.288,0.562-0.436c0.156-0.147,0.271-0.295,0.347-0.442c0.076-0.147,0.084-0.292,0.025-0.435
				c-0.051-0.059-0.131-0.093-0.24-0.101c-0.109-0.008-0.24-0.007-0.391,0.006c-0.151,0.013-0.322,0.034-0.511,0.063
				c-0.189,0.03-0.39,0.057-0.6,0.082c-0.328,0.042-0.682,0.084-1.06,0.127c-0.379,0.042-0.768,0.08-1.168,0.114
				c-0.4,0.033-0.804,0.059-1.212,0.076c-0.409,0.017-0.802,0.021-1.181,0.013c-0.581-0.025-1.075-0.114-1.483-0.265
				c-0.408-0.151-0.758-0.336-1.048-0.555c-0.29-0.219-0.53-0.463-0.72-0.732c-0.189-0.269-0.355-0.53-0.499-0.783
				c-0.177-0.311-0.296-0.656-0.359-1.035c-0.063-0.378-0.071-0.757-0.025-1.136c0.046-0.379,0.137-0.741,0.271-1.086
				c0.135-0.345,0.312-0.648,0.531-0.909c0.017,0.017,0.074,0.061,0.17,0.133c0.097,0.072,0.21,0.158,0.341,0.259
				c0.13,0.101,0.273,0.213,0.429,0.334c0.156,0.122,0.305,0.24,0.448,0.353c0.143,0.114,0.274,0.217,0.391,0.309
				c0.118,0.093,0.202,0.164,0.252,0.215c-0.16,0.051-0.318,0.107-0.473,0.17c-0.156,0.063-0.297,0.133-0.423,0.208
				c-0.126,0.076-0.225,0.152-0.297,0.227c-0.071,0.076-0.107,0.152-0.107,0.227c0.033,0.177,0.141,0.324,0.322,0.442
				c0.181,0.118,0.404,0.212,0.669,0.284c0.265,0.072,0.559,0.122,0.884,0.152c0.324,0.03,0.65,0.044,0.978,0.044
				c0.252,0,0.547-0.008,0.884-0.025c0.337-0.017,0.68-0.034,1.029-0.051c0.349-0.017,0.686-0.034,1.01-0.051
				c0.324-0.017,0.6-0.029,0.827-0.038c0.732-0.033,1.391,0.11,1.976,0.43c0.585,0.32,1.104,0.795,1.559,1.426
				c0.227,0.32,0.404,0.652,0.53,0.997c0.126,0.345,0.198,0.678,0.215,0.997c0.017,0.32-0.017,0.623-0.101,0.909
				c-0.034,0.101-0.067,0.194-0.101,0.278l1.086,1.048l-0.505,0.783h-7.777l-0.013,8.863c0,0.286,0.006,0.528,0.019,0.726
				c0.013,0.198,0.032,0.366,0.057,0.505c0.025,0.139,0.057,0.257,0.095,0.354c0.038,0.097,0.082,0.183,0.133,0.259
				c0.227-0.017,0.474-0.093,0.739-0.227c0.265-0.135,0.57-0.349,0.915-0.644c0.193-0.16,0.385-0.337,0.575-0.53
				c0.189-0.194,0.364-0.389,0.524-0.587c0.16-0.198,0.301-0.393,0.423-0.587c0.122-0.194,0.213-0.371,0.271-0.53
				c0.076-0.185,0.135-0.375,0.177-0.568h-0.139c-0.345,0-0.665-0.063-0.96-0.189c-0.295-0.127-0.553-0.301-0.777-0.524
				c-0.223-0.223-0.398-0.481-0.524-0.777C71.926,77.716,71.863,77.397,71.863,77.051z"/>
			<path fill="#231F20" d="M80.991,68.492c0.051,0.101,0.118,0.219,0.202,0.354c0.084,0.135,0.177,0.274,0.278,0.416
				c0.101,0.143,0.202,0.28,0.303,0.411c0.101,0.13,0.198,0.233,0.29,0.309c0.084,0.034,0.248,0.074,0.493,0.12
				c0.244,0.046,0.555,0.074,0.934,0.082l0.959,1.111l0.404,0.467l-0.404,0.581l-0.088,0.126h-0.24
				c-0.168,0-0.326-0.021-0.473-0.063c-0.148-0.042-0.289-0.09-0.423-0.145s-0.263-0.114-0.385-0.177
				c-0.122-0.063-0.246-0.115-0.372-0.158c0.152,0.446,0.29,0.953,0.417,1.521c0.126,0.568,0.193,1.143,0.202,1.723
				c0,0.547,0.004,1.202,0.013,1.964c0.008,0.762,0.013,1.707,0.013,2.834c0,1.456,0.006,2.662,0.019,3.617
				c0.013,0.956,0.027,1.635,0.044,2.039c-0.042,0.051-0.118,0.128-0.227,0.233c-0.11,0.105-0.225,0.217-0.347,0.335
				c-0.122,0.118-0.24,0.225-0.353,0.322c-0.114,0.097-0.196,0.162-0.246,0.196c-0.11-0.076-0.27-0.198-0.48-0.366
				c-0.211-0.168-0.43-0.347-0.656-0.536c-0.227-0.19-0.442-0.371-0.644-0.543c-0.202-0.172-0.341-0.309-0.417-0.41
				c0.008-0.455,0.023-0.968,0.045-1.541c0.021-0.572,0.04-1.174,0.057-1.805c0.017-0.631,0.033-1.279,0.051-1.944
				c0.017-0.665,0.029-1.317,0.038-1.957c0.017-0.581,0.025-1.136,0.025-1.666c-0.042-0.345-0.11-0.682-0.202-1.01
				c-0.118-0.462-0.268-0.877-0.448-1.243c-0.181-0.366-0.389-0.659-0.625-0.878c-0.101-0.101-0.202-0.177-0.303-0.227
				c-0.135-0.076-0.278-0.114-0.429-0.114c-0.051-0.051-0.141-0.149-0.272-0.296c-0.13-0.148-0.269-0.305-0.417-0.474
				c-0.147-0.168-0.284-0.326-0.41-0.474c-0.126-0.147-0.215-0.246-0.265-0.296l0.48-0.745h0.038c0.362,0,0.693,0.07,0.991,0.208
				c0.298,0.139,0.568,0.324,0.808,0.556c0.24,0.232,0.45,0.492,0.631,0.783c0.181,0.29,0.341,0.585,0.48,0.884
				c0.139,0.299,0.25,0.596,0.334,0.89c0.033,0.093,0.063,0.181,0.088,0.265c0.017-0.017,0.03-0.025,0.038-0.025
				c-0.025-0.328-0.07-0.701-0.133-1.117c-0.063-0.416-0.139-0.835-0.227-1.256c-0.088-0.421-0.185-0.823-0.29-1.206
				c-0.105-0.383-0.217-0.705-0.334-0.966L80.991,68.492z"/>
			<path fill="#231F20" d="M95.989,80.927c0-0.328,0.055-0.633,0.164-0.915c0.109-0.282,0.261-0.526,0.455-0.732
				c0.193-0.206,0.423-0.368,0.688-0.486c0.265-0.118,0.558-0.177,0.877-0.177c0.211,0,0.417,0.025,0.619,0.076
				c0.067-0.126,0.118-0.261,0.152-0.404c0.059-0.236,0.088-0.492,0.088-0.77c-0.202-0.261-0.499-0.494-0.89-0.701
				c-0.391-0.206-0.84-0.368-1.344-0.486c-0.446-0.109-0.926-0.181-1.439-0.214v4.57c0,0.606,0.004,1.12,0.013,1.541
				c0,0.396,0.002,0.757,0.007,1.085c0.004,0.329,0.01,0.634,0.019,0.915c0.008,0.283,0.021,0.552,0.038,0.808
				c0.017,0.257,0.042,0.516,0.076,0.777c-0.026,0.017-0.095,0.061-0.208,0.133c-0.114,0.071-0.24,0.149-0.379,0.233
				c-0.139,0.084-0.27,0.162-0.391,0.234c-0.122,0.071-0.2,0.12-0.233,0.145c-0.034-0.034-0.143-0.126-0.328-0.278
				c-0.185-0.151-0.396-0.315-0.631-0.492c-0.236-0.177-0.463-0.345-0.681-0.505c-0.219-0.16-0.379-0.273-0.48-0.341
				c-0.152-0.564-0.391-1.06-0.72-1.49c-0.328-0.429-0.726-0.789-1.193-1.079c-0.467-0.29-0.989-0.507-1.566-0.65
				c-0.577-0.143-1.189-0.215-1.837-0.215c-0.118-0.16-0.263-0.358-0.436-0.593c-0.173-0.236-0.358-0.488-0.555-0.757
				c-0.198-0.269-0.4-0.541-0.606-0.814c-0.206-0.274-0.396-0.524-0.568-0.751c-0.173-0.227-0.318-0.421-0.436-0.581
				c-0.118-0.16-0.194-0.265-0.227-0.315c0.463-0.488,1.025-0.996,1.685-1.522c0.661-0.526,1.393-1.012,2.197-1.458
				c0.803-0.446,1.656-0.821,2.556-1.124c0.564-0.185,1.141-0.324,1.73-0.416v-0.707h-7.941l-1.414-1.603l0.367-0.682h17.372
				l1.212,1.237l0.303,0.303l-0.455,0.745H95.37v0.656c0.379,0.042,0.745,0.114,1.098,0.215c0.48,0.135,0.932,0.32,1.357,0.556
				c0.425,0.236,0.827,0.53,1.206,0.884c0.32,0.303,0.616,0.618,0.89,0.947c0.273,0.328,0.513,0.68,0.72,1.054
				c0.206,0.374,0.372,0.768,0.499,1.18c0.127,0.413,0.202,0.85,0.227,1.313c0.067,0.623,0.026,1.185-0.126,1.685
				c-0.152,0.501-0.372,0.928-0.663,1.282c-0.29,0.353-0.633,0.627-1.029,0.821c-0.353,0.168-0.715,0.261-1.086,0.278h-0.214
				c-0.295-0.008-0.568-0.071-0.821-0.19c-0.286-0.135-0.537-0.313-0.751-0.536c-0.214-0.223-0.383-0.48-0.505-0.77
				C96.05,81.552,95.989,81.247,95.989,80.927z M91.899,76.673c-0.472,0.177-0.909,0.381-1.313,0.612
				c-0.404,0.232-0.774,0.48-1.111,0.745c-0.337,0.265-0.631,0.533-0.884,0.802c0.017,0.034,0.025,0.049,0.025,0.044
				c0-0.004,0.008,0.006,0.025,0.032c0.505,0.227,0.987,0.488,1.445,0.783c0.459,0.295,0.878,0.64,1.256,1.035
				c0.353,0.37,0.669,0.787,0.947,1.25c-0.008-0.092-0.017-0.189-0.025-0.29c-0.017-0.269-0.025-0.593-0.025-0.972v-2.02
				c0-0.699-0.005-1.38-0.013-2.045v-0.101L91.899,76.673z"/>
			<path fill="#231F20" d="M104.359,68.492c0.051,0.101,0.118,0.219,0.202,0.354c0.084,0.135,0.177,0.274,0.278,0.416
				c0.101,0.143,0.202,0.28,0.303,0.411c0.101,0.13,0.198,0.233,0.29,0.309c0.084,0.034,0.248,0.074,0.493,0.12
				c0.244,0.046,0.555,0.074,0.934,0.082l0.959,1.111l0.404,0.467l-0.404,0.581l-0.088,0.126h-0.24
				c-0.168,0-0.326-0.021-0.473-0.063c-0.148-0.042-0.289-0.09-0.423-0.145c-0.135-0.055-0.263-0.114-0.385-0.177
				c-0.122-0.063-0.246-0.115-0.372-0.158c0.152,0.446,0.29,0.953,0.417,1.521c0.126,0.568,0.193,1.143,0.202,1.723
				c0,0.547,0.004,1.202,0.013,1.964c0.008,0.762,0.012,1.707,0.012,2.834c0,1.456,0.007,2.662,0.019,3.617
				c0.012,0.956,0.027,1.635,0.044,2.039c-0.042,0.051-0.118,0.128-0.227,0.233c-0.109,0.105-0.225,0.217-0.347,0.335
				c-0.122,0.118-0.24,0.225-0.353,0.322c-0.114,0.097-0.196,0.162-0.246,0.196c-0.109-0.076-0.27-0.198-0.48-0.366
				c-0.211-0.168-0.429-0.347-0.656-0.536c-0.227-0.19-0.442-0.371-0.644-0.543c-0.202-0.172-0.341-0.309-0.417-0.41
				c0.008-0.455,0.023-0.968,0.045-1.541c0.021-0.572,0.04-1.174,0.057-1.805c0.017-0.631,0.033-1.279,0.051-1.944
				c0.017-0.665,0.029-1.317,0.038-1.957c0.017-0.581,0.025-1.136,0.025-1.666c-0.042-0.345-0.11-0.682-0.202-1.01
				c-0.118-0.462-0.268-0.877-0.449-1.243c-0.181-0.366-0.389-0.659-0.625-0.878c-0.101-0.101-0.202-0.177-0.303-0.227
				c-0.135-0.076-0.278-0.114-0.429-0.114c-0.051-0.051-0.141-0.149-0.272-0.296c-0.13-0.148-0.269-0.305-0.417-0.474
				c-0.147-0.168-0.284-0.326-0.41-0.474c-0.126-0.147-0.215-0.246-0.265-0.296l0.48-0.745h0.038c0.362,0,0.693,0.07,0.991,0.208
				c0.298,0.139,0.568,0.324,0.808,0.556c0.24,0.232,0.45,0.492,0.631,0.783c0.181,0.29,0.341,0.585,0.48,0.884
				c0.139,0.299,0.25,0.596,0.334,0.89c0.033,0.093,0.063,0.181,0.088,0.265c0.017-0.017,0.03-0.025,0.038-0.025
				c-0.025-0.328-0.07-0.701-0.133-1.117c-0.063-0.416-0.139-0.835-0.227-1.256c-0.088-0.421-0.185-0.823-0.29-1.206
				c-0.105-0.383-0.217-0.705-0.334-0.966L104.359,68.492z"/>
			<path fill="#231F20" d="M107.629,72.468l-1.439-1.578l0.391-0.707h13.496l1.553,1.503l-0.505,0.783h-1.048v0.089
				c0,0.572-0.002,1.208-0.006,1.906c-0.005,0.699-0.006,1.429-0.006,2.19c0,0.762,0.002,1.505,0.006,2.228
				c0.004,0.724,0.006,1.399,0.006,2.026c0,0.627,0.004,1.151,0.013,1.572v1.098c0,0.295,0.002,0.56,0.006,0.795
				c0.004,0.236,0.015,0.457,0.032,0.663c0.017,0.206,0.038,0.436,0.063,0.688c-0.025,0.017-0.095,0.069-0.208,0.158
				c-0.114,0.088-0.238,0.183-0.372,0.284l-0.378,0.278c-0.118,0.092-0.189,0.147-0.215,0.164c-0.042-0.042-0.162-0.135-0.36-0.278
				c-0.198-0.143-0.417-0.299-0.656-0.467c-0.24-0.168-0.473-0.33-0.7-0.486c-0.227-0.155-0.387-0.271-0.48-0.347
				c-0.252-0.715-0.618-1.317-1.098-1.805c-0.48-0.488-1.009-0.871-1.585-1.149c-0.577-0.278-1.168-0.461-1.774-0.549
				c-0.606-0.088-1.166-0.095-1.679-0.019c-0.152-0.218-0.358-0.501-0.619-0.846c-0.261-0.345-0.528-0.696-0.802-1.054
				c-0.274-0.358-0.534-0.694-0.783-1.01c-0.249-0.316-0.44-0.558-0.575-0.726c0.463-0.547,1.046-1.098,1.749-1.654
				c0.703-0.555,1.496-1.062,2.38-1.521s1.843-0.84,2.879-1.142c0.648-0.193,1.309-0.341,1.982-0.442v-0.644H107.629z
				 M112.679,87.618c-0.345,0-0.671-0.063-0.978-0.189c-0.308-0.126-0.574-0.299-0.802-0.518c-0.227-0.219-0.406-0.478-0.537-0.776
				c-0.13-0.299-0.196-0.621-0.196-0.966c0-0.354,0.065-0.684,0.196-0.991c0.13-0.308,0.309-0.575,0.537-0.802
				c0.227-0.227,0.494-0.408,0.802-0.543c0.307-0.135,0.633-0.202,0.978-0.202c0.345,0,0.669,0.067,0.972,0.202
				c0.303,0.135,0.568,0.315,0.796,0.543c0.227,0.227,0.406,0.494,0.536,0.802c0.13,0.307,0.196,0.637,0.196,0.991
				c0,0.345-0.065,0.667-0.196,0.966c-0.13,0.299-0.309,0.558-0.536,0.776c-0.227,0.219-0.493,0.392-0.796,0.518
				C113.348,87.555,113.024,87.618,112.679,87.618z M117.035,82.43c-0.025-0.202-0.049-0.448-0.07-0.739
				c-0.021-0.29-0.032-0.625-0.032-1.004v-2.02c0-0.631-0.004-1.246-0.013-1.843l-0.088,0.025c-0.522,0.135-1.021,0.303-1.496,0.505
				c-0.475,0.202-0.913,0.423-1.313,0.663c-0.4,0.24-0.734,0.482-1.004,0.726c0.017,0.017,0.026,0.03,0.026,0.038
				c0,0.009,0.008,0.021,0.025,0.038c0.328,0.126,0.694,0.312,1.098,0.556c0.404,0.244,0.803,0.555,1.199,0.934
				c0.396,0.379,0.77,0.825,1.124,1.338c0.177,0.252,0.336,0.522,0.48,0.808C116.997,82.447,117.018,82.438,117.035,82.43z"/>
			<path fill="#231F20" d="M140.126,68.63c0.076,0.101,0.162,0.208,0.259,0.322c0.097,0.114,0.198,0.227,0.303,0.341
				c0.105,0.114,0.215,0.223,0.328,0.328c0.114,0.105,0.221,0.192,0.322,0.259c0.059,0.025,0.124,0.055,0.196,0.088
				c0.071,0.034,0.162,0.065,0.271,0.095c0.109,0.03,0.242,0.057,0.398,0.082c0.156,0.026,0.347,0.038,0.574,0.038l1.225,1.199
				l0.367,0.354l-0.442,0.732h-0.151c-0.421,0-0.785-0.052-1.092-0.158c-0.307-0.105-0.545-0.196-0.713-0.271
				c0.109,0.211,0.206,0.423,0.29,0.637c0.084,0.215,0.153,0.45,0.208,0.707c0.054,0.257,0.099,0.539,0.132,0.846
				c0.034,0.307,0.051,0.659,0.051,1.054v6.313c0,0.606,0.004,1.185,0.013,1.736c0.008,0.551,0.019,1.044,0.032,1.477
				c0.013,0.434,0.036,0.743,0.069,0.928c-0.042,0.051-0.12,0.124-0.233,0.221c-0.114,0.097-0.234,0.198-0.36,0.303
				c-0.126,0.105-0.248,0.202-0.366,0.29c-0.118,0.089-0.202,0.149-0.253,0.183c-0.101-0.076-0.257-0.202-0.467-0.379
				c-0.21-0.177-0.429-0.366-0.656-0.568c-0.227-0.202-0.437-0.398-0.631-0.587c-0.194-0.189-0.324-0.334-0.391-0.436
				c0.025-0.699,0.044-1.49,0.057-2.374c0.013-0.884,0.023-1.784,0.032-2.702v-1.881c-0.059-0.143-0.118-0.282-0.177-0.417
				c-0.093-0.194-0.185-0.383-0.278-0.568c-0.244,0.219-0.496,0.455-0.758,0.707c-0.471,0.455-0.957,0.93-1.458,1.426
				c-0.501,0.497-1.002,1.002-1.503,1.515c-0.501,0.513-0.995,1.023-1.483,1.528c-0.067-0.042-0.177-0.116-0.328-0.221
				c-0.151-0.105-0.322-0.223-0.511-0.353c-0.189-0.13-0.389-0.267-0.6-0.41c-0.21-0.143-0.408-0.28-0.593-0.41
				c-0.185-0.13-0.352-0.244-0.499-0.341c-0.147-0.097-0.25-0.166-0.309-0.208l-0.038-0.202l0.404-0.404
				c0.16-0.21,0.311-0.456,0.454-0.738c0.143-0.282,0.261-0.57,0.354-0.865c0.093-0.294,0.158-0.581,0.196-0.858
				c0.038-0.278,0.027-0.513-0.032-0.707c-0.177-0.042-0.377-0.049-0.599-0.019c-0.223,0.03-0.444,0.082-0.663,0.158
				c-0.219,0.076-0.425,0.168-0.619,0.278c-0.194,0.109-0.349,0.214-0.467,0.315c-0.185-0.067-0.398-0.204-0.637-0.41
				c-0.24-0.206-0.48-0.44-0.72-0.701c-0.24-0.261-0.461-0.526-0.663-0.796c-0.202-0.269-0.358-0.501-0.467-0.694
				c0.211-0.639,0.533-1.225,0.966-1.755c0.434-0.53,0.934-0.985,1.503-1.363c0.568-0.379,1.18-0.675,1.837-0.89
				c0.656-0.214,1.317-0.33,1.982-0.347c0.572-0.008,1.1,0.057,1.585,0.196c0.484,0.139,0.928,0.33,1.332,0.574
				c0.404,0.244,0.772,0.528,1.105,0.852c0.332,0.324,0.633,0.663,0.903,1.016c0.269,0.353,0.509,0.715,0.719,1.086
				c0.109,0.177,0.21,0.349,0.303,0.518c-0.025-0.85-0.105-1.658-0.24-2.424c-0.143-0.841-0.421-1.591-0.833-2.247L140.126,68.63z
				 M136.628,73.819c-0.547-0.387-1.123-0.576-1.73-0.568c-0.277,0.008-0.545,0.044-0.802,0.107
				c-0.257,0.063-0.492,0.148-0.707,0.252c-0.215,0.105-0.41,0.227-0.587,0.366c-0.177,0.139-0.32,0.284-0.429,0.435
				c0.008,0.009,0.013,0.026,0.013,0.051c0.152,0.034,0.316,0.097,0.493,0.19c0.177,0.092,0.358,0.227,0.543,0.404
				c0.177,0.177,0.341,0.385,0.492,0.625c0.152,0.24,0.27,0.49,0.354,0.751c0.581-0.522,1.149-1.018,1.705-1.49
				c0.345-0.286,0.681-0.568,1.01-0.846L136.628,73.819z"/>
			<path fill="#231F20" d="M145.088,91.722c-0.446-0.48-0.945-0.96-1.496-1.439c-0.551-0.48-1.159-0.968-1.824-1.464
				c-0.067,0.168-0.143,0.332-0.227,0.492c-0.227,0.43-0.494,0.793-0.802,1.092c-0.307,0.299-0.604,0.524-0.89,0.676
				c-0.522,0.303-1.027,0.499-1.515,0.587c-0.488,0.089-0.947,0.101-1.376,0.038c-0.429-0.063-0.827-0.189-1.193-0.379
				c-0.366-0.189-0.688-0.412-0.966-0.669c-0.277-0.257-0.511-0.535-0.7-0.833c-0.189-0.299-0.318-0.591-0.385-0.878
				c-0.118-0.488-0.126-0.947-0.026-1.376c0.101-0.429,0.278-0.821,0.53-1.174c0.253-0.353,0.562-0.663,0.928-0.928
				c0.366-0.265,0.756-0.474,1.168-0.625c0.488-0.168,0.995-0.244,1.521-0.227c0.526,0.017,1.059,0.109,1.597,0.277
				c0.017,0.009,0.038,0.017,0.063,0.025c-0.025-0.202-0.055-0.383-0.089-0.543c-0.042-0.168-0.084-0.299-0.126-0.391
				c0.059,0,0.198,0.015,0.417,0.044c0.219,0.03,0.455,0.068,0.707,0.114c0.252,0.046,0.494,0.093,0.726,0.139
				c0.231,0.046,0.393,0.082,0.486,0.108c0.059,0.177,0.124,0.41,0.196,0.7c0.072,0.29,0.137,0.596,0.196,0.915l0.051,0.227
				c0.16,0.118,0.32,0.24,0.48,0.366c0.345,0.295,0.688,0.614,1.029,0.959c0.341,0.345,0.671,0.696,0.991,1.054
				c0.32,0.358,0.625,0.715,0.915,1.073c0.29,0.358,0.558,0.701,0.802,1.029L145.088,91.722z M139.015,87.277
				c-0.438-0.143-0.844-0.219-1.219-0.227c-0.374-0.008-0.692,0.067-0.953,0.227c-0.32,0.194-0.593,0.425-0.821,0.694
				c-0.227,0.269-0.358,0.564-0.391,0.884c0.185,0.152,0.391,0.24,0.618,0.265c0.227,0.025,0.459,0.008,0.694-0.051
				c0.236-0.059,0.465-0.145,0.688-0.259c0.223-0.114,0.428-0.242,0.613-0.385c0.168-0.135,0.326-0.271,0.473-0.41
				c0.148-0.139,0.28-0.293,0.398-0.461l0.127-0.202L139.015,87.277z"/>
			<path fill="#231F20" d="M143.749,72.468l-1.439-1.578l0.391-0.707h13.496l1.553,1.503l-0.505,0.783h-1.048v0.089
				c0,0.572-0.002,1.208-0.006,1.906c-0.005,0.699-0.006,1.429-0.006,2.19c0,0.762,0.002,1.505,0.006,2.228
				c0.004,0.724,0.006,1.399,0.006,2.026c0,0.627,0.004,1.151,0.013,1.572v1.098c0,0.295,0.002,0.56,0.006,0.795
				c0.004,0.236,0.015,0.457,0.032,0.663c0.017,0.206,0.038,0.436,0.063,0.688c-0.025,0.017-0.095,0.069-0.208,0.158
				c-0.114,0.088-0.238,0.183-0.372,0.284l-0.378,0.278c-0.118,0.092-0.189,0.147-0.215,0.164c-0.042-0.042-0.162-0.135-0.36-0.278
				c-0.198-0.143-0.417-0.299-0.656-0.467c-0.24-0.168-0.473-0.33-0.7-0.486c-0.227-0.155-0.387-0.271-0.48-0.347
				c-0.252-0.715-0.618-1.317-1.098-1.805c-0.48-0.488-1.009-0.871-1.585-1.149c-0.577-0.278-1.168-0.461-1.774-0.549
				c-0.606-0.088-1.166-0.095-1.679-0.019c-0.152-0.218-0.358-0.501-0.619-0.846c-0.261-0.345-0.528-0.696-0.802-1.054
				c-0.274-0.358-0.534-0.694-0.783-1.01c-0.249-0.316-0.44-0.558-0.575-0.726c0.463-0.547,1.046-1.098,1.749-1.654
				c0.703-0.555,1.496-1.062,2.38-1.521c0.884-0.459,1.843-0.84,2.879-1.142c0.648-0.193,1.309-0.341,1.982-0.442v-0.644H143.749z
				 M148.799,87.618c-0.345,0-0.671-0.063-0.978-0.189c-0.308-0.126-0.574-0.299-0.802-0.518c-0.227-0.219-0.406-0.478-0.537-0.776
				c-0.13-0.299-0.196-0.621-0.196-0.966c0-0.354,0.065-0.684,0.196-0.991c0.13-0.308,0.309-0.575,0.537-0.802
				c0.227-0.227,0.494-0.408,0.802-0.543c0.307-0.135,0.633-0.202,0.978-0.202c0.345,0,0.669,0.067,0.972,0.202
				c0.303,0.135,0.568,0.315,0.796,0.543c0.227,0.227,0.406,0.494,0.536,0.802c0.13,0.307,0.196,0.637,0.196,0.991
				c0,0.345-0.065,0.667-0.196,0.966c-0.13,0.299-0.309,0.558-0.536,0.776c-0.227,0.219-0.493,0.392-0.796,0.518
				C149.468,87.555,149.144,87.618,148.799,87.618z M153.155,82.43c-0.025-0.202-0.049-0.448-0.07-0.739
				c-0.021-0.29-0.032-0.625-0.032-1.004v-2.02c0-0.631-0.004-1.246-0.013-1.843l-0.088,0.025c-0.522,0.135-1.021,0.303-1.496,0.505
				c-0.475,0.202-0.913,0.423-1.313,0.663c-0.4,0.24-0.734,0.482-1.004,0.726c0.017,0.017,0.026,0.03,0.026,0.038
				c0,0.009,0.008,0.021,0.025,0.038c0.328,0.126,0.694,0.312,1.098,0.556c0.404,0.244,0.803,0.555,1.199,0.934
				c0.396,0.379,0.77,0.825,1.124,1.338c0.177,0.252,0.336,0.522,0.48,0.808C153.117,82.447,153.138,82.438,153.155,82.43z"/>
			<path fill="#231F20" d="M172.117,78.554c0.278,0.261,0.535,0.528,0.77,0.802c0.235,0.274,0.444,0.564,0.625,0.871
				c0.181,0.307,0.324,0.633,0.429,0.978c0.105,0.345,0.171,0.715,0.196,1.111c0.059,0.53,0.027,1.012-0.095,1.445
				c-0.122,0.434-0.309,0.802-0.562,1.105c-0.252,0.303-0.547,0.539-0.884,0.707c-0.253,0.126-0.513,0.206-0.783,0.24l-0.151,0.013
				h-0.227c-0.236-0.017-0.459-0.076-0.669-0.177c-0.244-0.118-0.459-0.271-0.644-0.461c-0.185-0.189-0.328-0.412-0.429-0.669
				c-0.101-0.257-0.152-0.52-0.152-0.789c0-0.294,0.045-0.564,0.133-0.808c0.089-0.244,0.217-0.457,0.385-0.638
				c0.168-0.181,0.368-0.32,0.6-0.416c0.231-0.097,0.486-0.145,0.764-0.145c0.143,0,0.282,0.013,0.417,0.038
				c0.042-0.093,0.084-0.19,0.126-0.29c0.067-0.194,0.101-0.412,0.101-0.657c-0.169-0.202-0.415-0.383-0.739-0.543
				c-0.324-0.16-0.696-0.282-1.117-0.366c-0.354-0.076-0.728-0.122-1.124-0.139v3.421c0,0.648,0.004,1.246,0.013,1.793
				c0,0.337,0.002,0.644,0.006,0.922c0.004,0.277,0.011,0.539,0.019,0.783c0.008,0.244,0.021,0.475,0.038,0.694
				c0.017,0.219,0.038,0.437,0.063,0.656c-0.026,0.017-0.089,0.057-0.189,0.12c-0.101,0.063-0.213,0.13-0.335,0.202
				s-0.233,0.139-0.334,0.202c-0.101,0.063-0.168,0.103-0.202,0.12c-0.026-0.033-0.122-0.114-0.29-0.24
				c-0.168-0.126-0.356-0.267-0.562-0.423c-0.206-0.156-0.409-0.303-0.606-0.442c-0.198-0.139-0.339-0.234-0.423-0.284
				c-0.126-0.488-0.333-0.915-0.618-1.281c-0.286-0.366-0.627-0.671-1.023-0.915c-0.396-0.244-0.84-0.427-1.332-0.549
				c-0.493-0.122-1.016-0.183-1.572-0.183c-0.092-0.135-0.217-0.305-0.372-0.511c-0.156-0.206-0.32-0.423-0.493-0.65
				c-0.173-0.227-0.347-0.461-0.524-0.7c-0.177-0.24-0.339-0.459-0.486-0.657c-0.148-0.198-0.271-0.366-0.372-0.505
				c-0.101-0.139-0.164-0.229-0.189-0.271c0.395-0.421,0.867-0.856,1.414-1.307c0.547-0.45,1.155-0.867,1.824-1.25
				c0.669-0.383,1.395-0.709,2.178-0.978c0.336-0.109,0.681-0.202,1.035-0.278c-0.261-0.227-0.513-0.488-0.758-0.783
				c-0.37-0.471-0.686-1.048-0.947-1.73h-0.051c-0.211,0.539-0.456,1.029-0.738,1.471c-0.282,0.442-0.57,0.823-0.865,1.143
				c-0.295,0.32-0.585,0.572-0.871,0.757c-0.286,0.185-0.539,0.295-0.757,0.329c-0.353,0.059-0.703,0.006-1.048-0.158
				c-0.345-0.164-0.678-0.418-0.997-0.764c-0.32-0.345-0.619-0.764-0.897-1.256c-0.278-0.493-0.53-1.042-0.758-1.648
				c0.076-0.076,0.183-0.162,0.322-0.259c0.139-0.096,0.289-0.191,0.448-0.284c0.16-0.093,0.32-0.175,0.48-0.246
				c0.16-0.071,0.307-0.124,0.442-0.158c0.017,0.126,0.046,0.265,0.089,0.417c0.042,0.151,0.096,0.299,0.164,0.442
				c0.067,0.143,0.145,0.272,0.233,0.386c0.089,0.113,0.183,0.204,0.284,0.271c0.194-0.093,0.408-0.244,0.644-0.455
				c0.235-0.21,0.465-0.467,0.688-0.77c0.223-0.303,0.423-0.648,0.6-1.035c0.067-0.143,0.13-0.294,0.189-0.455h-4.557l-1.439-1.578
				l0.392-0.707h17.283l1.553,1.503l-0.505,0.783h-3.8c0.185,0.202,0.349,0.412,0.493,0.631c0.328,0.505,0.551,1.016,0.669,1.534
				c0.118,0.518,0.126,1.008,0.025,1.471c-0.101,0.463-0.315,0.841-0.644,1.136c-0.135,0.135-0.277,0.252-0.429,0.353
				C171.204,77.83,171.68,78.15,172.117,78.554z M164.946,80.776c-0.69,0.387-1.258,0.812-1.704,1.275
				c0.017,0.033,0.025,0.048,0.025,0.044c0-0.004,0.008,0.002,0.025,0.019c0.429,0.194,0.837,0.415,1.225,0.663
				c0.387,0.248,0.74,0.541,1.06,0.877c0.311,0.312,0.581,0.669,0.808,1.073c-0.008-0.084-0.012-0.168-0.012-0.253
				c-0.017-0.236-0.026-0.509-0.026-0.821c0-1.397-0.008-2.554-0.025-3.472C165.826,80.342,165.367,80.54,164.946,80.776z
				 M164.719,72.468c0.117,0.32,0.265,0.606,0.442,0.859c0.303,0.429,0.64,0.753,1.01,0.972c0.371,0.219,0.756,0.333,1.155,0.34
				c0.399,0.009,0.764-0.092,1.092-0.303c0.252-0.16,0.379-0.366,0.379-0.618c0-0.253-0.076-0.505-0.227-0.757
				c-0.101-0.168-0.232-0.333-0.391-0.493H164.719z"/>
			<path fill="#231F20" d="M177.029,68.492c0.051,0.101,0.118,0.219,0.202,0.354c0.084,0.135,0.177,0.274,0.278,0.416
				c0.101,0.143,0.202,0.28,0.303,0.411c0.101,0.13,0.198,0.233,0.29,0.309c0.084,0.034,0.248,0.074,0.493,0.12
				c0.244,0.046,0.555,0.074,0.934,0.082l0.959,1.111l0.404,0.467l-0.404,0.581l-0.088,0.126h-0.24
				c-0.168,0-0.326-0.021-0.473-0.063c-0.147-0.042-0.289-0.09-0.423-0.145s-0.263-0.114-0.385-0.177
				c-0.122-0.063-0.246-0.115-0.372-0.158c0.152,0.446,0.29,0.953,0.416,1.521c0.126,0.568,0.194,1.143,0.202,1.723
				c0,0.547,0.004,1.202,0.013,1.964c0.008,0.762,0.013,1.707,0.013,2.834c0,1.456,0.006,2.662,0.019,3.617
				c0.013,0.956,0.027,1.635,0.044,2.039c-0.042,0.051-0.118,0.128-0.227,0.233c-0.109,0.105-0.225,0.217-0.347,0.335
				c-0.122,0.118-0.24,0.225-0.353,0.322c-0.114,0.097-0.196,0.162-0.246,0.196c-0.11-0.076-0.27-0.198-0.48-0.366
				c-0.211-0.168-0.43-0.347-0.656-0.536c-0.227-0.19-0.442-0.371-0.644-0.543c-0.202-0.172-0.341-0.309-0.417-0.41
				c0.008-0.455,0.023-0.968,0.044-1.541c0.021-0.572,0.04-1.174,0.057-1.805c0.017-0.631,0.033-1.279,0.051-1.944
				c0.017-0.665,0.029-1.317,0.038-1.957c0.017-0.581,0.025-1.136,0.025-1.666c-0.042-0.345-0.109-0.682-0.202-1.01
				c-0.118-0.462-0.268-0.877-0.448-1.243c-0.181-0.366-0.389-0.659-0.625-0.878c-0.101-0.101-0.202-0.177-0.303-0.227
				c-0.135-0.076-0.278-0.114-0.429-0.114c-0.051-0.051-0.141-0.149-0.272-0.296c-0.13-0.148-0.269-0.305-0.417-0.474
				c-0.147-0.168-0.284-0.326-0.41-0.474c-0.126-0.147-0.215-0.246-0.265-0.296l0.48-0.745h0.038c0.362,0,0.693,0.07,0.991,0.208
				c0.298,0.139,0.568,0.324,0.808,0.556c0.24,0.232,0.45,0.492,0.631,0.783c0.181,0.29,0.341,0.585,0.48,0.884
				c0.139,0.299,0.25,0.596,0.334,0.89c0.033,0.093,0.063,0.181,0.088,0.265c0.017-0.017,0.03-0.025,0.038-0.025
				c-0.025-0.328-0.07-0.701-0.133-1.117c-0.063-0.416-0.139-0.835-0.227-1.256c-0.088-0.421-0.185-0.823-0.29-1.206
				c-0.105-0.383-0.217-0.705-0.335-0.966L177.029,68.492z"/>
			<path fill="#231F20" d="M180.298,72.468l-1.439-1.578l0.391-0.707h13.496l1.553,1.503l-0.505,0.783h-1.048v0.089
				c0,0.572-0.002,1.208-0.006,1.906c-0.005,0.699-0.006,1.429-0.006,2.19c0,0.762,0.002,1.505,0.006,2.228
				c0.004,0.724,0.006,1.399,0.006,2.026c0,0.627,0.004,1.151,0.013,1.572v1.098c0,0.295,0.002,0.56,0.006,0.795
				c0.004,0.236,0.015,0.457,0.032,0.663c0.017,0.206,0.038,0.436,0.063,0.688c-0.025,0.017-0.095,0.069-0.208,0.158
				c-0.114,0.088-0.238,0.183-0.372,0.284l-0.378,0.278c-0.118,0.092-0.189,0.147-0.215,0.164c-0.042-0.042-0.162-0.135-0.36-0.278
				c-0.198-0.143-0.417-0.299-0.656-0.467c-0.24-0.168-0.473-0.33-0.7-0.486c-0.227-0.155-0.387-0.271-0.48-0.347
				c-0.252-0.715-0.618-1.317-1.098-1.805c-0.48-0.488-1.008-0.871-1.585-1.149c-0.577-0.278-1.168-0.461-1.774-0.549
				c-0.606-0.088-1.166-0.095-1.679-0.019c-0.152-0.218-0.358-0.501-0.619-0.846c-0.261-0.345-0.528-0.696-0.802-1.054
				c-0.274-0.358-0.534-0.694-0.783-1.01c-0.249-0.316-0.44-0.558-0.575-0.726c0.463-0.547,1.046-1.098,1.749-1.654
				c0.703-0.555,1.496-1.062,2.38-1.521c0.884-0.459,1.843-0.84,2.879-1.142c0.648-0.193,1.309-0.341,1.982-0.442v-0.644H180.298z
				 M185.348,87.618c-0.345,0-0.671-0.063-0.978-0.189c-0.308-0.126-0.574-0.299-0.802-0.518c-0.227-0.219-0.406-0.478-0.537-0.776
				c-0.13-0.299-0.196-0.621-0.196-0.966c0-0.354,0.065-0.684,0.196-0.991c0.13-0.308,0.309-0.575,0.537-0.802
				c0.227-0.227,0.494-0.408,0.802-0.543c0.307-0.135,0.633-0.202,0.978-0.202s0.669,0.067,0.972,0.202
				c0.303,0.135,0.568,0.315,0.796,0.543c0.227,0.227,0.406,0.494,0.536,0.802c0.13,0.307,0.196,0.637,0.196,0.991
				c0,0.345-0.065,0.667-0.196,0.966c-0.13,0.299-0.309,0.558-0.536,0.776c-0.227,0.219-0.493,0.392-0.796,0.518
				C186.017,87.555,185.693,87.618,185.348,87.618z M189.704,82.43c-0.025-0.202-0.049-0.448-0.07-0.739
				c-0.021-0.29-0.032-0.625-0.032-1.004v-2.02c0-0.631-0.004-1.246-0.013-1.843l-0.088,0.025c-0.522,0.135-1.021,0.303-1.496,0.505
				c-0.475,0.202-0.913,0.423-1.313,0.663c-0.4,0.24-0.734,0.482-1.004,0.726c0.017,0.017,0.025,0.03,0.025,0.038
				c0,0.009,0.008,0.021,0.025,0.038c0.328,0.126,0.694,0.312,1.098,0.556c0.404,0.244,0.803,0.555,1.199,0.934
				c0.396,0.379,0.77,0.825,1.124,1.338c0.177,0.252,0.336,0.522,0.48,0.808C189.666,82.447,189.687,82.438,189.704,82.43z"/>
		</g>
		<g>
			<g>
				<path fill="#FFF100" d="M71.179,76.367c0-0.337,0.063-0.656,0.189-0.96c0.126-0.303,0.301-0.568,0.524-0.795
					c0.223-0.227,0.486-0.408,0.789-0.543c0.286-0.118,0.594-0.185,0.922-0.202h0.202c0.379,0.017,0.774,0.088,1.187,0.215
					c0.446,0.135,0.854,0.355,1.225,0.662c0.37,0.308,0.674,0.712,0.909,1.212c0.236,0.501,0.353,1.113,0.353,1.837
					c0,0.463-0.04,0.92-0.12,1.37c-0.08,0.45-0.214,0.903-0.404,1.357c-0.189,0.455-0.44,0.915-0.751,1.382
					c-0.312,0.467-0.703,0.953-1.174,1.458c-0.253,0.278-0.524,0.537-0.815,0.777c-0.29,0.24-0.578,0.448-0.865,0.625
					c-0.286,0.177-0.566,0.322-0.84,0.436c-0.274,0.114-0.524,0.183-0.751,0.208c-0.253,0.033-0.53,0.01-0.834-0.07
					c-0.303-0.08-0.61-0.202-0.921-0.366c-0.312-0.164-0.617-0.362-0.916-0.593c-0.299-0.232-0.566-0.474-0.802-0.726
					c-0.219-0.236-0.425-0.48-0.619-0.732c-0.193-0.252-0.366-0.503-0.517-0.751c-0.152-0.248-0.272-0.493-0.36-0.732
					c-0.089-0.24-0.133-0.465-0.133-0.675l0.013-8.976H65.7l-1.439-1.578l0.391-0.707h9.204c0.185-0.109,0.366-0.223,0.543-0.341
					c0.219-0.143,0.406-0.288,0.562-0.436c0.156-0.147,0.271-0.295,0.347-0.442c0.076-0.147,0.084-0.292,0.025-0.435
					c-0.051-0.059-0.131-0.093-0.24-0.101c-0.109-0.008-0.24-0.007-0.391,0.006c-0.151,0.013-0.322,0.034-0.511,0.063
					c-0.189,0.03-0.39,0.057-0.6,0.082c-0.328,0.042-0.682,0.084-1.06,0.127c-0.379,0.042-0.768,0.08-1.168,0.114
					c-0.4,0.033-0.804,0.059-1.212,0.076c-0.409,0.017-0.802,0.021-1.181,0.013c-0.581-0.025-1.075-0.114-1.483-0.265
					c-0.408-0.151-0.758-0.336-1.048-0.555c-0.29-0.219-0.53-0.463-0.72-0.732c-0.189-0.269-0.355-0.53-0.499-0.783
					c-0.177-0.311-0.296-0.656-0.359-1.035c-0.063-0.378-0.071-0.757-0.025-1.136c0.046-0.379,0.137-0.741,0.271-1.086
					c0.135-0.345,0.312-0.648,0.531-0.909c0.017,0.017,0.074,0.061,0.17,0.133c0.097,0.072,0.21,0.158,0.341,0.259
					c0.13,0.101,0.273,0.213,0.429,0.334c0.156,0.122,0.305,0.24,0.448,0.353c0.143,0.114,0.274,0.217,0.391,0.309
					c0.118,0.093,0.202,0.164,0.252,0.215c-0.16,0.051-0.318,0.107-0.473,0.17c-0.156,0.063-0.297,0.133-0.423,0.208
					c-0.126,0.076-0.225,0.152-0.297,0.227c-0.071,0.076-0.107,0.152-0.107,0.227c0.033,0.177,0.141,0.324,0.322,0.442
					c0.181,0.118,0.404,0.212,0.669,0.284c0.265,0.072,0.559,0.122,0.884,0.152c0.324,0.03,0.65,0.044,0.978,0.044
					c0.252,0,0.547-0.008,0.884-0.025c0.337-0.017,0.68-0.034,1.029-0.051c0.349-0.017,0.686-0.034,1.01-0.051
					c0.324-0.017,0.6-0.029,0.827-0.038c0.732-0.033,1.391,0.11,1.976,0.43c0.585,0.32,1.104,0.795,1.559,1.426
					c0.227,0.32,0.404,0.652,0.53,0.997c0.126,0.345,0.198,0.678,0.215,0.997c0.017,0.32-0.017,0.623-0.101,0.909
					c-0.034,0.101-0.067,0.194-0.101,0.278l1.086,1.048l-0.505,0.783h-7.777l-0.013,8.863c0,0.286,0.006,0.528,0.019,0.726
					c0.013,0.198,0.032,0.366,0.057,0.505c0.025,0.139,0.057,0.257,0.095,0.353c0.038,0.097,0.082,0.183,0.133,0.259
					c0.227-0.017,0.474-0.093,0.739-0.227c0.265-0.135,0.57-0.349,0.915-0.644c0.193-0.16,0.385-0.337,0.575-0.53
					c0.189-0.194,0.364-0.389,0.524-0.587c0.16-0.198,0.301-0.393,0.423-0.587c0.122-0.194,0.213-0.371,0.271-0.53
					c0.076-0.185,0.135-0.375,0.177-0.568h-0.139c-0.345,0-0.665-0.063-0.96-0.189c-0.295-0.127-0.553-0.301-0.777-0.524
					c-0.223-0.223-0.398-0.481-0.524-0.777C71.242,77.032,71.179,76.713,71.179,76.367z"/>
				<path fill="#FFF100" d="M80.307,67.808c0.051,0.101,0.118,0.219,0.202,0.353c0.084,0.135,0.177,0.274,0.278,0.416
					c0.101,0.143,0.202,0.28,0.303,0.411c0.101,0.13,0.198,0.233,0.29,0.309c0.084,0.034,0.248,0.074,0.493,0.12
					c0.244,0.046,0.555,0.074,0.934,0.082l0.959,1.111l0.404,0.467l-0.404,0.581l-0.088,0.126h-0.24
					c-0.168,0-0.326-0.021-0.473-0.063c-0.148-0.042-0.289-0.09-0.423-0.145c-0.135-0.055-0.263-0.114-0.385-0.177
					c-0.122-0.063-0.246-0.115-0.372-0.158c0.152,0.446,0.29,0.953,0.417,1.521c0.126,0.568,0.193,1.143,0.202,1.723
					c0,0.547,0.004,1.202,0.013,1.964c0.008,0.762,0.013,1.707,0.013,2.834c0,1.456,0.006,2.662,0.019,3.617
					c0.013,0.956,0.027,1.635,0.044,2.039c-0.042,0.051-0.118,0.128-0.227,0.233c-0.11,0.105-0.225,0.217-0.347,0.335
					c-0.122,0.118-0.24,0.225-0.353,0.322c-0.114,0.096-0.196,0.162-0.246,0.196c-0.11-0.076-0.27-0.198-0.48-0.366
					c-0.211-0.168-0.43-0.347-0.656-0.536c-0.227-0.19-0.442-0.371-0.644-0.543c-0.202-0.172-0.341-0.309-0.417-0.41
					c0.008-0.455,0.023-0.968,0.045-1.541c0.021-0.572,0.04-1.174,0.057-1.805c0.017-0.631,0.033-1.279,0.051-1.944
					c0.017-0.665,0.029-1.317,0.038-1.957c0.017-0.581,0.025-1.136,0.025-1.666c-0.042-0.345-0.109-0.682-0.202-1.01
					c-0.118-0.462-0.268-0.877-0.448-1.243c-0.181-0.366-0.389-0.659-0.625-0.878c-0.101-0.101-0.202-0.177-0.303-0.227
					c-0.135-0.076-0.278-0.114-0.429-0.114c-0.051-0.051-0.141-0.149-0.272-0.296c-0.13-0.148-0.269-0.305-0.417-0.474
					c-0.147-0.168-0.284-0.326-0.41-0.474c-0.126-0.147-0.215-0.246-0.265-0.296l0.48-0.745h0.038c0.362,0,0.693,0.07,0.991,0.208
					c0.298,0.139,0.568,0.324,0.808,0.556c0.24,0.232,0.45,0.492,0.631,0.783c0.181,0.29,0.341,0.585,0.48,0.884
					c0.139,0.299,0.25,0.596,0.334,0.89c0.033,0.093,0.063,0.181,0.088,0.265c0.017-0.017,0.03-0.025,0.038-0.025
					c-0.025-0.328-0.07-0.701-0.133-1.117c-0.063-0.416-0.139-0.835-0.227-1.256c-0.088-0.421-0.185-0.823-0.29-1.206
					c-0.105-0.383-0.217-0.705-0.334-0.966L80.307,67.808z"/>
				<path fill="#FFF100" d="M95.305,80.243c0-0.328,0.055-0.633,0.164-0.915c0.109-0.282,0.261-0.526,0.455-0.732
					c0.193-0.206,0.423-0.368,0.688-0.486c0.265-0.118,0.558-0.177,0.877-0.177c0.211,0,0.417,0.025,0.619,0.076
					c0.067-0.126,0.118-0.261,0.152-0.404c0.059-0.236,0.088-0.492,0.088-0.77c-0.202-0.261-0.499-0.494-0.89-0.701
					c-0.391-0.206-0.84-0.368-1.344-0.486c-0.446-0.109-0.926-0.181-1.439-0.214v4.57c0,0.606,0.004,1.12,0.013,1.541
					c0,0.396,0.002,0.757,0.007,1.085c0.004,0.328,0.01,0.634,0.019,0.915c0.008,0.283,0.021,0.552,0.038,0.808
					c0.017,0.257,0.042,0.516,0.076,0.777c-0.026,0.017-0.095,0.061-0.208,0.133c-0.114,0.071-0.24,0.149-0.379,0.233
					c-0.139,0.084-0.27,0.162-0.391,0.234c-0.122,0.071-0.2,0.12-0.233,0.145c-0.034-0.034-0.143-0.126-0.328-0.278
					c-0.185-0.151-0.396-0.315-0.631-0.492c-0.236-0.177-0.463-0.345-0.681-0.505c-0.219-0.16-0.379-0.273-0.48-0.341
					c-0.152-0.564-0.391-1.06-0.72-1.49c-0.328-0.429-0.726-0.789-1.193-1.079s-0.989-0.507-1.566-0.65
					c-0.577-0.143-1.189-0.215-1.837-0.215c-0.118-0.16-0.263-0.358-0.436-0.593c-0.173-0.236-0.358-0.488-0.555-0.757
					c-0.198-0.269-0.4-0.541-0.606-0.814c-0.206-0.274-0.396-0.524-0.568-0.751c-0.173-0.227-0.318-0.421-0.436-0.581
					c-0.118-0.16-0.194-0.265-0.227-0.315c0.463-0.488,1.025-0.996,1.685-1.522c0.661-0.526,1.393-1.012,2.197-1.458
					c0.804-0.446,1.656-0.821,2.556-1.124c0.564-0.185,1.141-0.324,1.73-0.416v-0.707h-7.941l-1.414-1.603l0.367-0.682h17.372
					l1.212,1.237l0.303,0.303l-0.455,0.745h-6.275v0.656c0.379,0.042,0.745,0.114,1.098,0.215c0.48,0.135,0.932,0.32,1.357,0.556
					c0.425,0.236,0.827,0.53,1.206,0.884c0.32,0.303,0.616,0.618,0.89,0.947c0.273,0.328,0.513,0.68,0.72,1.054
					c0.206,0.374,0.372,0.768,0.499,1.18c0.127,0.413,0.202,0.85,0.227,1.313c0.067,0.623,0.026,1.185-0.126,1.685
					c-0.152,0.501-0.372,0.928-0.663,1.282c-0.29,0.353-0.633,0.627-1.029,0.821c-0.353,0.168-0.715,0.261-1.086,0.278h-0.214
					c-0.295-0.008-0.568-0.071-0.821-0.19c-0.286-0.135-0.537-0.313-0.751-0.536c-0.214-0.223-0.383-0.48-0.505-0.77
					C95.366,80.868,95.305,80.563,95.305,80.243z M91.215,75.989c-0.472,0.177-0.909,0.381-1.313,0.612
					c-0.404,0.232-0.774,0.48-1.111,0.745c-0.337,0.265-0.631,0.533-0.884,0.802c0.017,0.034,0.025,0.049,0.025,0.044
					c0-0.004,0.008,0.006,0.025,0.032c0.505,0.227,0.987,0.488,1.445,0.783c0.459,0.295,0.878,0.64,1.256,1.035
					c0.353,0.37,0.669,0.787,0.947,1.25c-0.008-0.092-0.017-0.189-0.025-0.29c-0.017-0.269-0.025-0.593-0.025-0.972v-2.02
					c0-0.699-0.005-1.38-0.013-2.045v-0.101L91.215,75.989z"/>
				<path fill="#FFF100" d="M103.675,67.808c0.051,0.101,0.118,0.219,0.202,0.353c0.084,0.135,0.177,0.274,0.278,0.416
					c0.101,0.143,0.202,0.28,0.303,0.411c0.101,0.13,0.198,0.233,0.29,0.309c0.084,0.034,0.248,0.074,0.493,0.12
					c0.244,0.046,0.555,0.074,0.934,0.082l0.959,1.111l0.404,0.467l-0.404,0.581l-0.088,0.126h-0.24
					c-0.168,0-0.326-0.021-0.473-0.063c-0.148-0.042-0.289-0.09-0.423-0.145c-0.135-0.055-0.263-0.114-0.385-0.177
					c-0.122-0.063-0.246-0.115-0.372-0.158c0.152,0.446,0.29,0.953,0.417,1.521c0.126,0.568,0.193,1.143,0.202,1.723
					c0,0.547,0.004,1.202,0.013,1.964c0.008,0.762,0.012,1.707,0.012,2.834c0,1.456,0.007,2.662,0.019,3.617
					c0.012,0.956,0.027,1.635,0.044,2.039c-0.042,0.051-0.118,0.128-0.227,0.233c-0.109,0.105-0.225,0.217-0.347,0.335
					c-0.122,0.118-0.24,0.225-0.354,0.322c-0.114,0.096-0.196,0.162-0.246,0.196c-0.109-0.076-0.27-0.198-0.48-0.366
					c-0.211-0.168-0.429-0.347-0.656-0.536c-0.227-0.19-0.442-0.371-0.644-0.543c-0.202-0.172-0.341-0.309-0.417-0.41
					c0.008-0.455,0.023-0.968,0.045-1.541c0.021-0.572,0.04-1.174,0.057-1.805c0.017-0.631,0.033-1.279,0.051-1.944
					c0.017-0.665,0.029-1.317,0.038-1.957c0.017-0.581,0.025-1.136,0.025-1.666c-0.042-0.345-0.11-0.682-0.202-1.01
					c-0.118-0.462-0.268-0.877-0.449-1.243c-0.181-0.366-0.389-0.659-0.625-0.878c-0.101-0.101-0.202-0.177-0.303-0.227
					c-0.135-0.076-0.278-0.114-0.429-0.114c-0.051-0.051-0.141-0.149-0.272-0.296c-0.13-0.148-0.269-0.305-0.417-0.474
					c-0.147-0.168-0.284-0.326-0.41-0.474c-0.126-0.147-0.215-0.246-0.265-0.296l0.48-0.745h0.038c0.362,0,0.693,0.07,0.991,0.208
					c0.298,0.139,0.568,0.324,0.808,0.556c0.24,0.232,0.45,0.492,0.631,0.783c0.181,0.29,0.341,0.585,0.48,0.884
					c0.139,0.299,0.25,0.596,0.334,0.89c0.033,0.093,0.063,0.181,0.088,0.265c0.017-0.017,0.03-0.025,0.038-0.025
					c-0.025-0.328-0.07-0.701-0.133-1.117c-0.063-0.416-0.139-0.835-0.227-1.256c-0.088-0.421-0.185-0.823-0.29-1.206
					c-0.105-0.383-0.217-0.705-0.334-0.966L103.675,67.808z"/>
				<path fill="#FFF100" d="M106.945,71.784l-1.439-1.578l0.391-0.707h13.496l1.553,1.503l-0.505,0.783h-1.048v0.089
					c0,0.572-0.002,1.208-0.006,1.906c-0.005,0.699-0.006,1.429-0.006,2.19c0,0.762,0.002,1.505,0.006,2.228
					c0.004,0.724,0.006,1.399,0.006,2.026c0,0.627,0.004,1.151,0.013,1.572v1.098c0,0.295,0.002,0.56,0.006,0.795
					c0.004,0.236,0.015,0.457,0.032,0.663c0.017,0.206,0.038,0.436,0.063,0.688c-0.025,0.017-0.095,0.069-0.208,0.158
					c-0.114,0.088-0.238,0.183-0.372,0.284l-0.378,0.278c-0.118,0.092-0.189,0.147-0.215,0.164c-0.042-0.042-0.162-0.135-0.36-0.278
					c-0.198-0.143-0.417-0.299-0.656-0.467c-0.24-0.168-0.473-0.33-0.7-0.486c-0.227-0.155-0.387-0.271-0.48-0.347
					c-0.252-0.715-0.618-1.317-1.098-1.805c-0.48-0.488-1.009-0.871-1.585-1.149c-0.577-0.278-1.168-0.461-1.774-0.549
					c-0.606-0.088-1.166-0.095-1.679-0.019c-0.152-0.219-0.358-0.501-0.619-0.846c-0.261-0.345-0.528-0.696-0.802-1.054
					c-0.274-0.358-0.534-0.694-0.783-1.01c-0.249-0.316-0.44-0.558-0.575-0.726c0.463-0.547,1.046-1.098,1.749-1.654
					c0.703-0.555,1.496-1.062,2.38-1.521s1.843-0.84,2.879-1.142c0.648-0.193,1.309-0.341,1.982-0.442v-0.644H106.945z
					 M111.995,86.934c-0.345,0-0.671-0.063-0.978-0.189c-0.308-0.126-0.574-0.299-0.802-0.518c-0.227-0.219-0.406-0.478-0.537-0.776
					c-0.13-0.299-0.196-0.621-0.196-0.966c0-0.353,0.065-0.684,0.196-0.991c0.13-0.308,0.309-0.575,0.537-0.802
					c0.227-0.227,0.494-0.408,0.802-0.543c0.307-0.135,0.633-0.202,0.978-0.202c0.345,0,0.669,0.067,0.972,0.202
					c0.303,0.135,0.568,0.315,0.796,0.543c0.227,0.227,0.406,0.494,0.536,0.802c0.13,0.307,0.196,0.637,0.196,0.991
					c0,0.345-0.065,0.667-0.196,0.966c-0.13,0.299-0.309,0.558-0.536,0.776c-0.227,0.219-0.493,0.392-0.796,0.518
					C112.664,86.871,112.34,86.934,111.995,86.934z M116.351,81.746c-0.025-0.202-0.049-0.448-0.07-0.739
					c-0.021-0.29-0.032-0.625-0.032-1.004v-2.02c0-0.631-0.004-1.246-0.013-1.843l-0.088,0.025
					c-0.522,0.135-1.021,0.303-1.496,0.505c-0.475,0.202-0.913,0.423-1.313,0.663c-0.4,0.24-0.734,0.482-1.004,0.726
					c0.017,0.017,0.026,0.03,0.026,0.038c0,0.009,0.008,0.021,0.025,0.038c0.328,0.126,0.694,0.312,1.098,0.556
					c0.404,0.244,0.803,0.555,1.199,0.934c0.396,0.379,0.77,0.825,1.124,1.338c0.177,0.252,0.336,0.522,0.48,0.808
					C116.313,81.763,116.334,81.754,116.351,81.746z"/>
				<path fill="#FFF100" d="M139.442,67.946c0.076,0.101,0.162,0.208,0.259,0.322c0.097,0.114,0.198,0.227,0.303,0.341
					c0.105,0.114,0.215,0.223,0.328,0.328c0.114,0.105,0.221,0.192,0.322,0.259c0.059,0.025,0.124,0.055,0.196,0.088
					c0.071,0.034,0.162,0.065,0.271,0.095c0.109,0.03,0.242,0.057,0.398,0.082c0.156,0.026,0.347,0.038,0.574,0.038l1.225,1.199
					l0.367,0.354l-0.442,0.732h-0.151c-0.421,0-0.785-0.052-1.092-0.158c-0.307-0.105-0.545-0.196-0.713-0.271
					c0.109,0.211,0.206,0.423,0.29,0.637c0.084,0.215,0.153,0.45,0.208,0.707c0.054,0.257,0.099,0.539,0.132,0.846
					c0.034,0.307,0.051,0.659,0.051,1.054v6.313c0,0.606,0.004,1.185,0.013,1.736c0.008,0.551,0.019,1.044,0.032,1.477
					c0.013,0.434,0.036,0.743,0.069,0.928c-0.042,0.051-0.12,0.124-0.233,0.221c-0.114,0.097-0.234,0.198-0.36,0.303
					c-0.126,0.105-0.248,0.202-0.366,0.29c-0.118,0.089-0.202,0.149-0.253,0.183c-0.101-0.076-0.257-0.202-0.467-0.379
					c-0.21-0.177-0.429-0.366-0.656-0.568c-0.227-0.202-0.437-0.398-0.631-0.587c-0.194-0.189-0.324-0.334-0.391-0.436
					c0.025-0.699,0.044-1.49,0.057-2.374c0.013-0.884,0.023-1.784,0.032-2.702v-1.881c-0.059-0.143-0.118-0.282-0.177-0.417
					c-0.093-0.194-0.185-0.383-0.278-0.568c-0.244,0.219-0.496,0.455-0.758,0.707c-0.471,0.455-0.957,0.93-1.458,1.426
					c-0.501,0.497-1.002,1.002-1.503,1.515c-0.501,0.513-0.995,1.023-1.483,1.528c-0.067-0.042-0.177-0.116-0.328-0.221
					c-0.151-0.105-0.322-0.223-0.511-0.353c-0.189-0.13-0.389-0.267-0.6-0.41c-0.21-0.143-0.408-0.28-0.593-0.41
					c-0.185-0.13-0.352-0.244-0.499-0.341c-0.147-0.097-0.25-0.166-0.309-0.208l-0.038-0.202l0.404-0.404
					c0.16-0.21,0.311-0.456,0.454-0.738c0.143-0.282,0.261-0.57,0.353-0.865c0.093-0.294,0.158-0.581,0.196-0.858
					c0.038-0.278,0.027-0.513-0.032-0.707c-0.177-0.042-0.377-0.049-0.599-0.019c-0.223,0.03-0.444,0.082-0.663,0.158
					c-0.219,0.076-0.425,0.168-0.619,0.278c-0.194,0.109-0.349,0.214-0.467,0.315c-0.185-0.067-0.398-0.204-0.637-0.41
					c-0.24-0.206-0.48-0.44-0.72-0.701c-0.24-0.261-0.461-0.526-0.663-0.796c-0.202-0.269-0.358-0.501-0.467-0.694
					c0.211-0.639,0.533-1.225,0.966-1.755c0.434-0.53,0.934-0.985,1.503-1.363c0.568-0.379,1.18-0.675,1.837-0.89
					c0.656-0.214,1.317-0.33,1.982-0.347c0.572-0.008,1.1,0.057,1.585,0.196c0.484,0.139,0.928,0.33,1.332,0.574
					c0.404,0.244,0.772,0.528,1.105,0.852c0.332,0.324,0.633,0.663,0.903,1.016c0.269,0.353,0.509,0.715,0.719,1.086
					c0.109,0.177,0.21,0.349,0.303,0.518c-0.025-0.85-0.105-1.658-0.24-2.424c-0.143-0.841-0.421-1.591-0.833-2.247L139.442,67.946z
					 M135.944,73.135c-0.547-0.387-1.123-0.576-1.73-0.568c-0.277,0.008-0.545,0.044-0.802,0.107
					c-0.257,0.063-0.492,0.148-0.707,0.252c-0.215,0.105-0.41,0.227-0.587,0.366c-0.177,0.139-0.32,0.284-0.429,0.435
					c0.008,0.009,0.013,0.026,0.013,0.051c0.152,0.034,0.316,0.097,0.493,0.19c0.177,0.092,0.358,0.227,0.543,0.404
					c0.177,0.177,0.341,0.385,0.492,0.625c0.152,0.24,0.27,0.49,0.353,0.751c0.581-0.522,1.149-1.018,1.705-1.49
					c0.345-0.286,0.681-0.568,1.01-0.846L135.944,73.135z"/>
				<path fill="#FFF100" d="M144.404,91.038c-0.446-0.48-0.945-0.96-1.496-1.439c-0.551-0.48-1.159-0.968-1.824-1.464
					c-0.067,0.168-0.143,0.332-0.227,0.492c-0.227,0.43-0.494,0.793-0.802,1.092c-0.307,0.299-0.604,0.524-0.89,0.676
					c-0.522,0.303-1.027,0.499-1.515,0.587c-0.488,0.089-0.947,0.101-1.376,0.038c-0.429-0.063-0.827-0.189-1.193-0.379
					c-0.366-0.189-0.688-0.412-0.966-0.669c-0.277-0.257-0.511-0.535-0.7-0.833c-0.189-0.299-0.318-0.591-0.385-0.878
					c-0.118-0.488-0.126-0.947-0.026-1.376c0.101-0.429,0.278-0.821,0.53-1.174c0.253-0.353,0.562-0.663,0.928-0.928
					c0.366-0.265,0.756-0.474,1.168-0.625c0.488-0.168,0.995-0.244,1.521-0.227c0.526,0.017,1.059,0.109,1.597,0.277
					c0.017,0.009,0.038,0.017,0.063,0.025c-0.025-0.202-0.055-0.383-0.089-0.543c-0.042-0.168-0.084-0.299-0.126-0.391
					c0.059,0,0.198,0.015,0.417,0.044c0.219,0.03,0.455,0.068,0.707,0.114c0.252,0.046,0.494,0.093,0.726,0.139
					c0.231,0.046,0.393,0.082,0.486,0.108c0.059,0.177,0.124,0.41,0.196,0.7c0.072,0.29,0.137,0.596,0.196,0.915l0.051,0.227
					c0.16,0.118,0.32,0.24,0.48,0.366c0.345,0.295,0.688,0.614,1.029,0.959c0.341,0.345,0.671,0.696,0.991,1.054
					c0.32,0.358,0.625,0.715,0.915,1.073c0.29,0.358,0.558,0.701,0.802,1.029L144.404,91.038z M138.331,86.593
					c-0.438-0.143-0.844-0.219-1.219-0.227c-0.374-0.008-0.692,0.067-0.953,0.227c-0.32,0.194-0.593,0.425-0.821,0.694
					c-0.227,0.269-0.358,0.564-0.391,0.884c0.185,0.152,0.391,0.24,0.618,0.265c0.227,0.025,0.459,0.008,0.694-0.051
					c0.236-0.059,0.465-0.145,0.688-0.259c0.223-0.114,0.428-0.242,0.613-0.385c0.168-0.135,0.326-0.271,0.473-0.41
					c0.148-0.139,0.28-0.293,0.398-0.461l0.127-0.202L138.331,86.593z"/>
				<path fill="#FFF100" d="M143.065,71.784l-1.439-1.578l0.391-0.707h13.496l1.553,1.503l-0.505,0.783h-1.048v0.089
					c0,0.572-0.002,1.208-0.006,1.906c-0.005,0.699-0.006,1.429-0.006,2.19c0,0.762,0.002,1.505,0.006,2.228
					c0.004,0.724,0.006,1.399,0.006,2.026c0,0.627,0.004,1.151,0.013,1.572v1.098c0,0.295,0.002,0.56,0.006,0.795
					c0.004,0.236,0.015,0.457,0.032,0.663c0.017,0.206,0.038,0.436,0.063,0.688c-0.025,0.017-0.095,0.069-0.208,0.158
					c-0.114,0.088-0.238,0.183-0.372,0.284l-0.378,0.278c-0.118,0.092-0.189,0.147-0.215,0.164c-0.042-0.042-0.162-0.135-0.36-0.278
					c-0.198-0.143-0.417-0.299-0.656-0.467c-0.24-0.168-0.473-0.33-0.7-0.486c-0.227-0.155-0.387-0.271-0.48-0.347
					c-0.252-0.715-0.618-1.317-1.098-1.805c-0.48-0.488-1.009-0.871-1.585-1.149c-0.577-0.278-1.168-0.461-1.774-0.549
					c-0.606-0.088-1.166-0.095-1.679-0.019c-0.152-0.219-0.358-0.501-0.619-0.846c-0.261-0.345-0.528-0.696-0.802-1.054
					c-0.274-0.358-0.534-0.694-0.783-1.01c-0.249-0.316-0.44-0.558-0.575-0.726c0.463-0.547,1.046-1.098,1.749-1.654
					c0.703-0.555,1.496-1.062,2.38-1.521c0.884-0.459,1.843-0.84,2.879-1.142c0.648-0.193,1.309-0.341,1.982-0.442v-0.644H143.065z
					 M148.115,86.934c-0.345,0-0.671-0.063-0.978-0.189c-0.308-0.126-0.574-0.299-0.802-0.518c-0.227-0.219-0.406-0.478-0.537-0.776
					c-0.13-0.299-0.196-0.621-0.196-0.966c0-0.353,0.065-0.684,0.196-0.991c0.13-0.308,0.309-0.575,0.537-0.802
					c0.227-0.227,0.494-0.408,0.802-0.543c0.307-0.135,0.633-0.202,0.978-0.202c0.345,0,0.669,0.067,0.972,0.202
					c0.303,0.135,0.568,0.315,0.796,0.543c0.227,0.227,0.406,0.494,0.536,0.802c0.13,0.307,0.196,0.637,0.196,0.991
					c0,0.345-0.065,0.667-0.196,0.966c-0.13,0.299-0.309,0.558-0.536,0.776c-0.227,0.219-0.493,0.392-0.796,0.518
					C148.784,86.871,148.46,86.934,148.115,86.934z M152.471,81.746c-0.025-0.202-0.049-0.448-0.07-0.739
					c-0.021-0.29-0.032-0.625-0.032-1.004v-2.02c0-0.631-0.004-1.246-0.013-1.843l-0.088,0.025
					c-0.522,0.135-1.021,0.303-1.496,0.505c-0.475,0.202-0.913,0.423-1.313,0.663c-0.4,0.24-0.734,0.482-1.004,0.726
					c0.017,0.017,0.026,0.03,0.026,0.038c0,0.009,0.008,0.021,0.025,0.038c0.329,0.126,0.694,0.312,1.098,0.556
					c0.404,0.244,0.803,0.555,1.199,0.934c0.396,0.379,0.77,0.825,1.124,1.338c0.177,0.252,0.336,0.522,0.48,0.808
					C152.433,81.763,152.454,81.754,152.471,81.746z"/>
				<path fill="#FFF100" d="M171.433,77.87c0.278,0.261,0.535,0.528,0.77,0.802c0.235,0.274,0.444,0.564,0.625,0.871
					c0.181,0.307,0.324,0.633,0.429,0.978c0.105,0.345,0.171,0.715,0.196,1.111c0.059,0.53,0.027,1.012-0.095,1.445
					c-0.122,0.434-0.309,0.802-0.562,1.105c-0.252,0.303-0.547,0.539-0.884,0.707c-0.253,0.126-0.513,0.206-0.783,0.24l-0.151,0.013
					h-0.227c-0.236-0.017-0.459-0.076-0.669-0.177c-0.244-0.118-0.459-0.271-0.644-0.461c-0.185-0.189-0.328-0.412-0.429-0.669
					c-0.101-0.257-0.152-0.52-0.152-0.789c0-0.295,0.045-0.564,0.133-0.808c0.089-0.244,0.217-0.457,0.385-0.638
					c0.168-0.181,0.368-0.32,0.6-0.416c0.231-0.097,0.486-0.145,0.764-0.145c0.143,0,0.282,0.013,0.417,0.038
					c0.042-0.093,0.084-0.19,0.126-0.29c0.067-0.194,0.101-0.412,0.101-0.657c-0.169-0.202-0.415-0.383-0.739-0.543
					c-0.324-0.16-0.696-0.282-1.117-0.366c-0.353-0.076-0.728-0.122-1.124-0.139v3.421c0,0.648,0.004,1.246,0.013,1.793
					c0,0.337,0.002,0.644,0.006,0.922c0.004,0.277,0.011,0.539,0.019,0.783s0.021,0.475,0.038,0.694
					c0.017,0.219,0.038,0.437,0.063,0.656c-0.026,0.017-0.089,0.057-0.189,0.12c-0.101,0.063-0.213,0.13-0.335,0.202
					c-0.122,0.071-0.233,0.139-0.334,0.202c-0.101,0.063-0.168,0.103-0.202,0.12c-0.026-0.033-0.122-0.114-0.29-0.24
					c-0.168-0.126-0.356-0.267-0.562-0.423c-0.206-0.156-0.409-0.303-0.606-0.442c-0.198-0.139-0.339-0.234-0.423-0.284
					c-0.126-0.488-0.333-0.915-0.618-1.281c-0.286-0.366-0.627-0.671-1.023-0.915c-0.396-0.244-0.84-0.427-1.332-0.549
					c-0.493-0.122-1.016-0.183-1.572-0.183c-0.092-0.135-0.217-0.305-0.372-0.511c-0.156-0.206-0.32-0.423-0.493-0.65
					c-0.173-0.227-0.347-0.461-0.524-0.7c-0.177-0.24-0.339-0.459-0.486-0.657c-0.148-0.198-0.271-0.366-0.372-0.505
					c-0.101-0.139-0.164-0.229-0.189-0.271c0.395-0.421,0.867-0.856,1.414-1.307c0.547-0.45,1.155-0.867,1.824-1.25
					c0.669-0.383,1.395-0.709,2.178-0.978c0.336-0.109,0.681-0.202,1.035-0.278c-0.261-0.227-0.513-0.488-0.758-0.783
					c-0.37-0.471-0.686-1.048-0.947-1.73h-0.051c-0.211,0.539-0.456,1.029-0.738,1.471c-0.282,0.442-0.57,0.823-0.865,1.143
					c-0.295,0.32-0.585,0.572-0.871,0.757c-0.286,0.185-0.539,0.295-0.757,0.329c-0.354,0.059-0.703,0.006-1.048-0.158
					c-0.345-0.164-0.678-0.418-0.997-0.764c-0.32-0.345-0.619-0.764-0.897-1.256c-0.278-0.493-0.53-1.042-0.758-1.648
					c0.076-0.076,0.183-0.162,0.322-0.259c0.139-0.096,0.289-0.191,0.448-0.284c0.16-0.093,0.32-0.175,0.48-0.246
					c0.16-0.071,0.307-0.124,0.442-0.158c0.017,0.126,0.046,0.265,0.089,0.417c0.042,0.151,0.096,0.299,0.164,0.442
					c0.067,0.143,0.145,0.272,0.233,0.386c0.089,0.113,0.183,0.204,0.284,0.271c0.194-0.093,0.408-0.244,0.644-0.455
					c0.235-0.21,0.465-0.467,0.688-0.77c0.223-0.303,0.423-0.648,0.6-1.035c0.067-0.143,0.13-0.295,0.189-0.455h-4.557l-1.439-1.578
					l0.392-0.707h17.283l1.553,1.503l-0.505,0.783h-3.8c0.185,0.202,0.349,0.412,0.493,0.631c0.328,0.505,0.551,1.016,0.669,1.534
					s0.126,1.008,0.025,1.471c-0.101,0.463-0.315,0.841-0.644,1.136c-0.135,0.135-0.277,0.252-0.429,0.353
					C170.52,77.146,170.996,77.466,171.433,77.87z M164.262,80.092c-0.69,0.387-1.258,0.812-1.704,1.275
					c0.017,0.033,0.025,0.048,0.025,0.044s0.008,0.002,0.025,0.019c0.429,0.194,0.837,0.415,1.225,0.663
					c0.387,0.248,0.74,0.541,1.06,0.877c0.311,0.312,0.581,0.669,0.808,1.073c-0.008-0.084-0.012-0.168-0.012-0.253
					c-0.017-0.236-0.026-0.509-0.026-0.821c0-1.397-0.008-2.554-0.025-3.472C165.142,79.658,164.683,79.856,164.262,80.092z
					 M164.035,71.784c0.117,0.32,0.265,0.606,0.442,0.859c0.303,0.429,0.64,0.753,1.01,0.972c0.371,0.219,0.756,0.333,1.155,0.34
					c0.399,0.009,0.764-0.092,1.092-0.303c0.252-0.16,0.379-0.366,0.379-0.618c0-0.253-0.076-0.505-0.227-0.757
					c-0.101-0.168-0.232-0.333-0.391-0.493H164.035z"/>
				<path fill="#FFF100" d="M176.345,67.808c0.051,0.101,0.118,0.219,0.202,0.353c0.084,0.135,0.177,0.274,0.278,0.416
					c0.101,0.143,0.202,0.28,0.303,0.411c0.101,0.13,0.198,0.233,0.29,0.309c0.084,0.034,0.248,0.074,0.493,0.12
					c0.244,0.046,0.555,0.074,0.934,0.082l0.959,1.111l0.404,0.467l-0.404,0.581l-0.088,0.126h-0.24
					c-0.168,0-0.326-0.021-0.473-0.063c-0.147-0.042-0.289-0.09-0.423-0.145c-0.135-0.055-0.263-0.114-0.385-0.177
					c-0.122-0.063-0.246-0.115-0.372-0.158c0.152,0.446,0.29,0.953,0.416,1.521c0.126,0.568,0.193,1.143,0.202,1.723
					c0,0.547,0.004,1.202,0.013,1.964c0.008,0.762,0.013,1.707,0.013,2.834c0,1.456,0.006,2.662,0.019,3.617
					c0.013,0.956,0.027,1.635,0.044,2.039c-0.042,0.051-0.118,0.128-0.227,0.233c-0.109,0.105-0.225,0.217-0.347,0.335
					c-0.122,0.118-0.24,0.225-0.354,0.322c-0.114,0.096-0.196,0.162-0.246,0.196c-0.11-0.076-0.27-0.198-0.48-0.366
					c-0.211-0.168-0.43-0.347-0.656-0.536c-0.227-0.19-0.442-0.371-0.644-0.543c-0.202-0.172-0.341-0.309-0.417-0.41
					c0.008-0.455,0.023-0.968,0.044-1.541c0.021-0.572,0.04-1.174,0.057-1.805c0.017-0.631,0.033-1.279,0.051-1.944
					c0.017-0.665,0.029-1.317,0.038-1.957c0.017-0.581,0.025-1.136,0.025-1.666c-0.042-0.345-0.109-0.682-0.202-1.01
					c-0.118-0.462-0.268-0.877-0.449-1.243c-0.181-0.366-0.389-0.659-0.625-0.878c-0.101-0.101-0.202-0.177-0.303-0.227
					c-0.135-0.076-0.278-0.114-0.429-0.114c-0.051-0.051-0.141-0.149-0.272-0.296c-0.13-0.148-0.269-0.305-0.417-0.474
					c-0.147-0.168-0.284-0.326-0.41-0.474c-0.126-0.147-0.215-0.246-0.265-0.296l0.48-0.745h0.038c0.362,0,0.693,0.07,0.991,0.208
					c0.298,0.139,0.568,0.324,0.808,0.556c0.24,0.232,0.45,0.492,0.631,0.783c0.181,0.29,0.341,0.585,0.48,0.884
					c0.139,0.299,0.25,0.596,0.334,0.89c0.033,0.093,0.063,0.181,0.088,0.265c0.017-0.017,0.03-0.025,0.038-0.025
					c-0.025-0.328-0.07-0.701-0.133-1.117c-0.063-0.416-0.139-0.835-0.227-1.256c-0.088-0.421-0.185-0.823-0.29-1.206
					c-0.105-0.383-0.217-0.705-0.334-0.966L176.345,67.808z"/>
				<path fill="#FFF100" d="M179.614,71.784l-1.439-1.578l0.391-0.707h13.496l1.553,1.503l-0.505,0.783h-1.048v0.089
					c0,0.572-0.002,1.208-0.006,1.906c-0.005,0.699-0.006,1.429-0.006,2.19c0,0.762,0.002,1.505,0.006,2.228
					c0.004,0.724,0.006,1.399,0.006,2.026c0,0.627,0.004,1.151,0.013,1.572v1.098c0,0.295,0.002,0.56,0.006,0.795
					c0.004,0.236,0.015,0.457,0.032,0.663c0.017,0.206,0.038,0.436,0.063,0.688c-0.025,0.017-0.095,0.069-0.208,0.158
					c-0.114,0.088-0.238,0.183-0.372,0.284l-0.378,0.278c-0.118,0.092-0.189,0.147-0.215,0.164c-0.042-0.042-0.162-0.135-0.36-0.278
					c-0.198-0.143-0.417-0.299-0.656-0.467c-0.24-0.168-0.473-0.33-0.7-0.486c-0.227-0.155-0.387-0.271-0.48-0.347
					c-0.252-0.715-0.618-1.317-1.098-1.805c-0.48-0.488-1.008-0.871-1.585-1.149c-0.577-0.278-1.168-0.461-1.774-0.549
					c-0.606-0.088-1.166-0.095-1.679-0.019c-0.152-0.219-0.358-0.501-0.619-0.846c-0.261-0.345-0.528-0.696-0.802-1.054
					c-0.274-0.358-0.534-0.694-0.783-1.01c-0.249-0.316-0.44-0.558-0.575-0.726c0.463-0.547,1.046-1.098,1.749-1.654
					c0.703-0.555,1.496-1.062,2.38-1.521c0.884-0.459,1.843-0.84,2.879-1.142c0.648-0.193,1.309-0.341,1.982-0.442v-0.644H179.614z
					 M184.664,86.934c-0.345,0-0.671-0.063-0.978-0.189c-0.308-0.126-0.574-0.299-0.802-0.518c-0.227-0.219-0.406-0.478-0.537-0.776
					c-0.13-0.299-0.196-0.621-0.196-0.966c0-0.353,0.065-0.684,0.196-0.991c0.13-0.308,0.309-0.575,0.537-0.802
					c0.227-0.227,0.494-0.408,0.802-0.543c0.307-0.135,0.633-0.202,0.978-0.202c0.345,0,0.669,0.067,0.972,0.202
					c0.303,0.135,0.568,0.315,0.796,0.543c0.227,0.227,0.406,0.494,0.536,0.802c0.13,0.307,0.196,0.637,0.196,0.991
					c0,0.345-0.065,0.667-0.196,0.966c-0.13,0.299-0.309,0.558-0.536,0.776c-0.227,0.219-0.493,0.392-0.796,0.518
					C185.333,86.871,185.009,86.934,184.664,86.934z M189.02,81.746c-0.025-0.202-0.049-0.448-0.07-0.739
					c-0.021-0.29-0.032-0.625-0.032-1.004v-2.02c0-0.631-0.004-1.246-0.013-1.843l-0.088,0.025
					c-0.522,0.135-1.021,0.303-1.496,0.505c-0.475,0.202-0.913,0.423-1.313,0.663c-0.4,0.24-0.734,0.482-1.004,0.726
					c0.017,0.017,0.025,0.03,0.025,0.038c0,0.009,0.008,0.021,0.025,0.038c0.328,0.126,0.694,0.312,1.098,0.556
					c0.404,0.244,0.803,0.555,1.199,0.934c0.396,0.379,0.77,0.825,1.124,1.338c0.177,0.252,0.336,0.522,0.48,0.808
					C188.982,81.763,189.003,81.754,189.02,81.746z"/>
			</g>
		</g>
	</g>
</g>
</svg>
