<?xml version="1.0" encoding="utf-8"?>
<!-- Generator: Adobe Illustrator 24.0.1, SVG Export Plug-In . SVG Version: 6.00 Build 0)  -->
<svg version="1.1" id="Layer_1" xmlns="http://www.w3.org/2000/svg" xmlns:xlink="http://www.w3.org/1999/xlink" x="0px" y="0px"
	 viewBox="0 0 230 60" enable-background="new 0 0 230 60" xml:space="preserve">
<path fill="#EE4023" d="M115,41.2c7.7,0,14-6.3,14-14s-6.3-14-14-14s-14,6.3-14,14C101,35,107.3,41.2,115,41.2z"/>
<rect x="114.3" y="4.4" transform="matrix(1 -0.0011 0.0011 1 -0.0086 0.1265)" fill="#EE4023" width="1.4" height="7"/>
<rect x="121.174" y="9.719" transform="matrix(0.4855 -0.8742 0.8742 0.4855 55.0339 114.354)" fill="#EE4023" width="7" height="1.4"/>
<rect x="127.967" y="16.688" transform="matrix(0.8515 -0.5243 0.5243 0.8515 10.4028 71.5116)" fill="#EE4023" width="7" height="1.4"/>
<rect x="104.812" y="6.902" transform="matrix(0.873 -0.4878 0.4878 0.873 8.3539 52.782)" fill="#EE4023" width="1.4" height="6.9"/>
<rect x="98.039" y="13.919" transform="matrix(0.5116 -0.8592 0.8592 0.5116 33.2993 93.3214)" fill="#EE4023" width="1.4" height="6.9"/>
<path fill="#231F20" d="M56.9,30.7c-11.3,7.3-15.6,9.4-15.6,9.4v7.2c14.5-6.9,23.5,1.9,23.5,1.9v2.5h6.8c0,0,0-18.2,0-20.9
	s-2.2-3.6-2.2-3.6h12.2c0,0-3.7,1.1-5.3,2.1c-1.9,1.2-1.5,3.3-1.5,3.3l8.3,3.5c0,0,1,0.3,1.1,1c0.1,0.9-1.1,1.1-1.1,1.1
	s-4.8,0.4-7.2,2.3c-1.7,1.4-1.3,2.6-1.3,2.6v3.6c0,0.3,0,0.6,0.2,0.7c1.9,2,5.5,2.6,5.5,2.6l2.9-1.6c-3.1-0.2-3.2-0.9-3.3-1.5
	c0-0.5,0.5-2,7-2.4c5.8-0.3,11.5,3.9,11.5,3.9v3.3h6.8c0,0,0-19.8,0-20.7c0-1.2-0.3-6-6.4-6h-5.9H60.4v1c4.4,0.4,4.3,3.4,4.3,3.4V44
	c-4.8-4.2-11.1-4.4-11.1-4.4c3.4-1.9,5.9-4,7.2-5.1c0.4-0.4,1.1-1.4,0.4-2.8c-1.1-2.3-2.3-4-4.3-5.8C54,23.3,50.3,25,50.3,25
	l-3.6,1.6C37.5,21.2,31.9,26,31.9,26v1.1c-14.4-9.6-24,2.6-24,2.6v3.1h9.8l-4,3.8V42l18-6.7v9.2c0,0-3.8-2.6-8.8-1.5
	c-3.1,0.7-7.7,2.5-9.1,2.5c-6,0.3-6.4-4-6.5-6.1c0-1.7,1.8-1.4,1.8-1.4v-2.6H1.2c0,0-0.4,2.5-0.1,4.7c0.7,6.5,4.4,9,7.6,9.8
	c6.2,1.4,10.5-2.5,14.6-2.9c5-0.4,8.4,3,8.4,3v1.5h6.8V28.7c0.4-1.2,1.4-1.6,1.8-1.7c2.9-0.5,4.2,0.2,4.2,0.2s-0.9,0.5-2.1,1.4
	c-1.2,0.9-0.8,2.7-0.7,4.2c0.1,1.5,2.7,2.5,2.7,2.5l2.2-1.1c-2-0.7-0.8-1.9-0.8-1.9s7.7-3.6,9-4.2c0,0,0.2-0.1,0.7-0.3
	c0.5-0.2,1.1-0.1,1.4,0.6C57.1,29.1,57.5,30.3,56.9,30.7z M21.9,33.8c0,0-0.5,0.3-0.8,0c-0.1-0.1,0-0.4,0.3-0.7l1.6-1.4
	c0,0,1.4-1.3-0.5-1.4s-4.8-0.1-4.8-0.1s-0.9,0.1-1-0.3c0-0.2,0-0.4,0.3-0.6c0.8-0.5,12.2-3.1,15.4,0.8L21.9,33.8z M94.7,37.1
	c0,0,0.5-1.9-3.2-3.6c-0.5-0.2-3.8-1.8-7.1-3.1c-0.5-0.2-0.8-1.2,0.2-1.6s6.2-1.8,6.2-1.8h4.6c0,0,3.2,0,3.2,3.2v12.6
	c0,0-2.5-2.5-7.8-4.1L94.7,37.1z"/>
<path fill="#231F20" d="M223.4,24.7h-51.2h-49.7v2.6h7.1c-7.7,2.3-6.9,6.2-6.9,6.2v6.7c0.2,3.4,4,3,4,3s3.9-0.6,6.2-1.6
	c2.8-0.9,4-1.8,4-1.8c2.9-1.3,1.9-3.7,1.8-3.9c-0.6-1.6-3.1-3.6-3.1-3.6l-2.8,0.9l0.6,0.6c1,0.8-0.9,1.8-0.9,1.8l-4.4,1.4
	c-2.3,0.5-1.5-1.1-1.4-1.3c0.6-1.4,3.4-2.7,4.3-3.2c7-3.7,8.8-0.7,9.6,0.2c5.3,5.7,0.2,10.1-0.9,11c-3.3,3-8.1,5.7-14.3,5.8
	c-6.9,0.1-8.5-3.2-8.5-3.2l0.6-1.5l-2.5-1.3l-5.7,6.8c21.1,14.4,36-4.3,36-4.3c3.3,1.1,5.2,3.4,5.2,3.4v2.2h6.6V30.9
	c0-3-2.1-3.5-2.1-3.5h4.5c2.4,0.9,2.1,3.6,2.1,3.6v20.5h6.9V30.6c0-3-2.2-3.3-2.2-3.3h5.3h9.6c-1.3,0.8-2.6,1.8-5.9,4.3
	c-3.3,2.8-2.7,5.9-2.7,5.9V44c-0.1,1.2,1.1,2.7,1.7,3.2c4.4,3.4,8,4.8,9.8,5.3c5.1,1.5,7.7-1.5,7.7-1.5l2.4-2.5l-2.4-1.3
	c-1.7,2.7-6.1-0.2-6.1-0.2s-2.7-1.6-3.9-2.3c-3.4-2.2-3.3-3.1-3.3-3.1v-7.4c0.3-2.2,8-6.8,8-6.8h22.3c2.6,0.9,2.3,3.7,2.3,3.7v4.5
	c-3.3-2.5-5.8-1-5.8-1l-4.1,2.1c0,0,1-1.5,2.3-3.2c1.2-1.7-0.5-2.2-4-3.8c-4.6-2.1-7.4,0.1-7.4,0.1s-2.8,1.5-5.8,3.7
	c-2.9,2.2-2.7,4.3-2.7,4.3V41c1.6,2.8,5.5,1.9,5.5,1.9L190,41c-2.4-0.1-1.9-1.2-1.6-1.6c0,0,9.2-5.6,10.9-6.5
	c0.2-0.1,0.8,0.1,0.6,0.6c-0.9,1.9-4.7,6.4-4.9,7c-1.6,4.1,1.2,5.2,1.2,5.2l11.3-5.6c2.9-1.4,3.6,0.7,3.6,0.7v11.1h6.6V31.1
	c0-2.9-2.3-3.7-2.3-3.7h4.4c2.6,1.1,2.4,3.8,2.4,3.8v20.6h6.5c0,0,0-18.1,0-20.7S227.7,24.7,223.4,24.7z M150.7,43.3
	c0,0-1.2-1.8-3.2-2.8c0,0,1-9.4-9.2-13.1h10.3c0,0,2,0.5,2,3.6v12.3H150.7z"/>
</svg>
