<?xml version="1.0" encoding="utf-8"?>
<!-- Generator: Adobe Illustrator 24.0.1, SVG Export Plug-In . SVG Version: 6.00 Build 0)  -->
<svg version="1.1" id="Layer_1" xmlns="http://www.w3.org/2000/svg" xmlns:xlink="http://www.w3.org/1999/xlink" x="0px" y="0px"
	 viewBox="0 0 176 60" enable-background="new 0 0 176 60" xml:space="preserve">
<path fill="#0B268A" d="M173.7,30.9v-0.1c0-0.1,0-0.2,0-0.4c-0.2-2-1-3.6-2.7-4.8c-0.7-0.4-1.4-0.6-2.1-0.7c-0.4,0-0.7,0-1.1,0
	c-20.6,0-41.2,0-61.8,0c-1.7,0-3.1,0.6-4.4,1.7c-0.7,0.7-1.3,1.4-1.9,2.2c-0.1,0.1-0.1,0.1-0.2,0.2l0,0l0,0c-0.8-1-1.8-1.8-2.9-2.4
	c-1.3-0.8-2.8-1.3-4.3-1.6c-0.5-0.1-1-0.1-1.4-0.1c-0.8,0-1.5,0-2.3,0c-0.2,0-0.2,0-0.2,0.2s0,0.4,0,0.6c-0.1-0.2-0.3-0.4-0.4-0.6
	c-0.1-0.1-0.2-0.2-0.4-0.2c-0.3,0-0.6,0-0.9,0c-18.2,0-36.3,0-54.5,0c-2.1,0-4,0.6-5.8,1.8c-0.2,0.2-0.4,0.3-0.3,0.6
	c0,0.2,0,0.5,0,0.8c-0.1,0-0.2-0.1-0.3-0.2c-1.5-1-3-2-4.7-2.6c-1.5-0.6-3-0.9-4.5-1.1c-0.1,0-0.2,0-0.2,0c-0.2,0-0.4,0-0.6-0.1
	c-0.3,0-0.6,0-1,0c-0.2,0.1-0.5,0.1-0.7,0.1c-1.3,0.1-2.6,0.3-3.8,0.8c-2.3,0.9-4.4,2.2-6.2,3.9c-0.6,0.6-1.3,1.3-1.8,2l0,0l0,0
	c0,1.1,0,2.2,0,3.4c0.1,0,0.2,0,0.3,0c3,0,6,0,9,0c0.1,0,0.2,0,0.3,0c0,0.1-0.1,0.2-0.1,0.2c-1.2,1.3-2.4,2.5-3.5,3.7
	c-0.1,0.1-0.2,0.2-0.2,0.4c0,1.8,0,3.6,0,5.3c0,0.1,0,0.2,0,0.3c5.9-2.4,11.9-4.9,17.8-7.3c0,0.1,0,0.3,0,0.4c0,4.5,0,9.1,0,13.6
	c0,0.4,0,0.4,0.4,0.4c2,0,4,0,6,0c0.4,0,0.3,0,0.3-0.3c0-7,0-14,0-21c0-0.1,0-0.2,0-0.3c0-0.8,0.7-1.9,1.8-2.1
	c0.3,0,0.5-0.1,0.8-0.1c2.3,0,4.6,0,6.9,0c0.3,0,0.3,0,0.3,0.3c0,2.6,0,5.1,0,7.7c0,0.4,0.1,0.8,0.4,1.1s0.5,0.5,0.8,0.7
	c1.2,0.8,2.6,1.4,4,1.7c0.4,0.1,0.8,0.1,1.2,0.1c0.8-0.1,1.6-0.3,2.4-0.5c1.9-0.5,3.8-1.1,5.6-1.9c0.4-0.2,0.3-0.2,0.6,0.2
	c0.3,0.3,0.4,0.7,0.4,1.2c0,0.1,0,0.1,0,0.2c0,0.3,0.1,0.7,0,1c-0.1,0.7-0.3,1.4-0.9,1.9c-0.8,0.6-1.6,1.2-2.6,1.6
	c-1.4,0.6-2.9,0.8-4.4,0.9c-0.8,0-1.7,0-2.5,0c-0.4,0-0.9,0-1.3-0.1c-1.2-0.2-2.4-0.5-3.5-1c-1-0.4-1.9-0.9-2.7-1.5
	c-0.4-0.3-0.8-0.7-1.1-1.1c-0.3-0.4-0.5-0.9-0.4-1.4c0-0.2-0.1-0.2-0.2-0.2c-0.5-0.1-1-0.3-1.5-0.4c-0.3-0.1-0.6-0.2-0.9-0.2
	c-0.1,0.2-0.1,0.3-0.1,0.4c0,0.5,0,1,0,1.5c0,0.6,0,1.2,0.1,1.8c0.4,1.8,1.3,3.3,2.6,4.5c0.8,0.8,1.7,1.4,2.7,2
	c1.2,0.7,2.5,1.2,3.9,1.3c1.6,0.1,3.3,0.2,4.9,0.2c1.4,0,2.8,0,4.2-0.2c1.2-0.2,2.4-0.6,3.6-1.2c2.1-1.1,3.5-2.8,4.3-5
	c0.1-0.2,0.1-0.4,0.1-0.6c0-1.8,0-3.7,0-5.5c0-0.7-0.2-1.4-0.6-1.9c-0.4-0.6-0.9-1.1-1.4-1.6c-1.1-0.9-2.2-1.8-3.2-2.7
	c-0.1-0.1-0.2-0.1-0.4-0.1c-0.8,0.2-1.6,0.5-2.4,0.7c-0.1,0-0.1,0-0.2,0.1c0.1,0.1,0.2,0.2,0.3,0.3c0.2,0.2,0.2,0.3,0,0.6
	c-0.1,0.2-0.3,0.3-0.4,0.4c-0.4,0.3-0.9,0.5-1.3,0.6c-0.9,0.3-1.9,0.5-2.8,0.8c-0.4,0.1-0.8,0.1-1.1,0.1c-0.2,0-0.4-0.2-0.5-0.4
	c0-0.1,0-0.2,0-0.2c0-1.9,0-3.9,0-5.8v-0.1c0-0.1,0-0.1,0.1-0.1s0.1,0,0.2,0c5,0,9.9,0,14.9,0c0.1,0,0.3,0,0.4,0.1
	c1,0.4,1.5,1.1,1.7,2.1c0.2,0.5,0.1,1,0.1,1.5c0,6.6,0,13.2,0,19.9c0,0.1,0,0.1,0,0.2c0,0.1,0,0.2,0.2,0.2c0.1,0,0.1,0,0.2,0
	c2,0,4,0,6,0c0.4,0,0.3,0,0.3-0.3c0-4.7,0-9.3,0-14c0-2.1,0-4.2,0-6.3c0-0.4,0-0.8-0.1-1.3c-0.3-0.9-0.8-1.6-1.7-2
	c0.6-0.1,13.8,0,14,0c0,0-0.1,0-0.1,0.1c-1.9,1.3-3.7,2.8-5.6,4.2c-1.3,1-2.1,2.2-2.7,3.7c-0.2,0.5-0.3,0.9-0.3,1.4
	c0,0.4,0,0.7,0,1.1c0,2.2,0,4.3,0,6.5c0,0.2,0,0.3,0.1,0.5c0.3,1,0.8,1.9,1.7,2.5c0.8,0.6,1.7,1.3,2.5,1.8c2,1.3,4.1,2.5,6.4,3.2
	c1.5,0.5,3.1,0.7,4.7,0.5c1.4-0.2,2.6-0.9,3.5-1.9c0.7-0.7,1.4-1.5,2.1-2.3c0.1-0.1,0.1-0.1,0.1-0.2l-0.1-0.1
	c-0.7-0.4-1.4-0.8-2.1-1.1c-0.1-0.1-0.2-0.1-0.3,0.1c-0.3,0.5-0.8,0.8-1.4,0.9c-0.5,0.1-1.1,0.1-1.6,0c-1.1-0.3-2-0.7-3-1.3
	c-0.9-0.6-1.7-1.1-2.6-1.7c-0.2-0.1-0.4-0.3-0.6-0.4c-0.7-0.4-1.4-0.9-2.1-1.4c-0.4-0.3-0.8-0.6-1.1-1c-0.3-0.4-0.5-0.7-0.5-1.3
	c0-1,0-2.1,0-3.1c0-1.3,0-2.5,0-3.8c0-0.2,0.1-0.5,0.2-0.7s0.2-0.3,0.3-0.5c0.4-0.5,0.8-0.9,1.3-1.4c1.9-1.7,4-3.1,6.2-4.4
	c0.1-0.1,0.2-0.1,0.3-0.1c0.6,0,1.3,0.1,1.9,0.2c0.9,0.1,1.7,0.3,2.5,0.6c0.5,0.2,0.9,0.4,1.3,0.8c0.6,0.6,0.7,1.2,0.4,2
	c-0.1,0.2-0.2,0.3-0.4,0.4c-1.2,0.6-2.4,1.2-3.6,1.9c-0.6,0.4-1.2,0.8-1.8,1.2c-0.8,0.7-1.2,1.6-1.2,2.6c0,1.2,0,2.4,0,3.6
	c0,0.2,0,0.4,0.1,0.6c0.1,0.4,0.3,0.7,0.6,1c0.2,0.2,0.4,0.3,0.7,0.5c1.4,0.9,3.1,1.4,4.7,1.8c0.1,0,0.2,0,0.2-0.1
	c0.3-0.4,0.6-0.8,0.9-1.1c0.2-0.2,0.3-0.4,0.5-0.6c-0.1-0.1-0.1,0-0.2,0c-0.4-0.1-0.8-0.1-1.1-0.3c-0.5-0.3-0.6-0.7-0.4-1.2
	c0.1-0.2,0.3-0.4,0.5-0.6c0.3-0.3,0.7-0.6,1.1-0.9c1.5-0.9,3.2-1.5,5-2c0.1,0,0.2,0,0.3,0.1c1.2,0.8,2.4,1.6,3.6,2.5
	c0.1,0.1,0.3,0.2,0.4,0.3c0.3,0.4,0.3,0.8,0,1.1c-0.1,0.1-0.2,0.2-0.3,0.3s-0.2,0.1-0.2,0.2c0.6,0.5,1.2,1,1.9,1.5
	c0.1,0.1,0.2,0,0.3,0c1.5-0.9,2.9-1.8,4.4-2.7c0.7-0.5,1-1.2,0.9-2c-0.1-0.9-0.6-1.6-1.4-2.1c-1.4-0.9-2.8-1.8-4.2-2.8
	c-0.2-0.1-0.4-0.3-0.5-0.4c-0.5-0.6-0.6-1.3-0.2-1.9c0.1-0.2,0.2-0.4,0.4-0.6c0.7-1.1,1.6-2,2.6-2.8c0.5-0.4,0.9-0.7,1.5-1
	c0.3-0.1,0.5-0.2,0.8-0.2c0.2,0,0.4,0,0.6,0c0.2,0,0.3,0,0.4,0.1c0.7,0.3,1.2,0.9,1.5,1.6c0.2,0.5,0.2,1,0.2,1.5
	c0,6.4,0,12.9,0,19.3c0,0.4,0,0.7,0,1.1c0,0.2,0,0.2,0.2,0.2c2,0,4.1,0,6.1,0c0.2,0,0.2,0,0.2-0.2V51c0-6.3,0-12.6,0-18.8
	c0-0.4,0-0.7-0.1-1c-0.2-1.4-0.8-2.6-1.8-3.6l-0.1-0.1h0.1c1.3,0,2.7,0,4,0c0.1,0,0.2,0,0.3,0.1c1,0.4,1.5,1.2,1.8,2.2
	c0.1,0.4,0.1,0.9,0.1,1.4c0,6.7,0,13.3,0,20c0,0.3,0,0.3,0.3,0.3c2,0,4,0,6,0c0.4,0,0.3,0,0.3-0.3c0-6.7,0-13.3,0-20
	c0-0.3,0-0.6,0-1c-0.1-0.8-0.4-1.6-1-2.1c-0.2-0.2-0.5-0.3-0.7-0.5c0.1,0,0.1,0,0.2,0c7.8,0,15.7,0,23.5,0c0.1,0,0.2,0,0.2,0
	c0.5,0.2,1,0.4,1.3,0.8c0.5,0.5,0.8,1.1,0.9,1.8c0.1,0.4,0.1,0.7,0.1,1.1c0,1.9,0,3.8,0,5.7c0,0.1,0,0.2,0,0.3
	c-0.1-0.1-0.1-0.1-0.2-0.2c-0.4-0.6-0.8-1.2-1.3-1.8c-0.8-1.1-1.7-2.1-2.9-2.8c-2.1-1.4-4.5-1.8-6.9-1.5c-1.9,0.3-3.8,0.8-5.6,1.6
	c-1.2,0.5-2.3,1.2-3.2,2.1c-0.8,0.8-1.2,1.8-1.2,2.9c0,2.3,0,4.6,0,6.9c0,1.2,0.5,2,1.5,2.6c0.1,0,0.1,0.1,0.2,0.1
	c0.7,0.4,1.5,0.6,2.3,0.5c0.5,0,1-0.1,1.5-0.2c1.4-0.3,2.9-0.8,4.3-1.2c1.3-0.5,2.6-0.9,3.9-1.5c0.6-0.3,1.1-0.6,1.7-1
	c0.7-0.6,1-1.4,0.9-2.3c-0.1-0.8-0.4-1.5-0.9-2.1c-0.7-0.8-1.5-1.6-2.2-2.3c-0.1-0.1-0.2-0.1-0.3-0.1c-0.8,0.2-1.6,0.5-2.3,0.7
	c-0.1,0-0.1,0-0.2,0.1c0.1,0.1,0.2,0.2,0.3,0.3s0.2,0.2,0.3,0.3c0.3,0.4,0.3,0.7,0,1.1c-0.2,0.3-0.5,0.4-0.9,0.6
	c-0.3,0.1-0.5,0.2-0.8,0.3c-1.2,0.4-2.3,0.8-3.5,1.1c-0.4,0.1-0.8,0.2-1.2,0.1c-0.2-0.1-0.4-0.2-0.5-0.4c-0.1-0.3-0.1-0.6-0.1-0.8
	c0.1-0.6,0.4-1,0.8-1.4c0.3-0.3,0.7-0.6,1.1-0.9c1-0.6,2-1.2,3.1-1.7c1.2-0.6,2.5-1,3.9-1.1c1.2-0.1,2.3,0.1,3.3,0.8
	c0.3,0.2,0.5,0.4,0.7,0.6c1.2,1.5,2.2,3,3.1,4.7c0.8,1.7,1.3,3.5,1.3,5.4c0,1.5,0,2.9,0,4.4c0,0.2,0,0.2,0.2,0.2c2,0,4.1,0,6.1,0
	c0.2,0,0.2,0,0.2-0.2c0,0,0,0,0-0.1c0-6.6,0-13.2,0-19.9c0-0.4,0-0.7-0.1-1.1c-0.3-1.1-0.9-1.9-1.9-2.5c-0.1,0-0.2-0.1-0.2-0.2
	c1.4,0,2.8,0,4.1,0c0.1,0,0.2,0,0.3,0.1c1.1,0.5,1.6,1.3,2,2.4c0.2,0.5,0.1,1,0.1,1.5c0,6.5,0,13.1,0,19.6c0,0.1,0,0.2,0,0.3
	c2.1,0,4.2,0,6.4,0l0,0c0.2,0,0.2,0,0.2-0.2c0-0.1,0-0.1,0-0.2C173.7,44.2,173.7,37.5,173.7,30.9z M26.1,31.5
	c-3.3,1.3-6.5,2.6-9.8,3.8c-0.2,0.1-0.3,0.1-0.5,0.2c-0.1,0-0.2,0-0.3,0c-0.3,0-0.4-0.3-0.2-0.5c0.1-0.1,0.1-0.2,0.2-0.3
	c0.5-0.5,1.1-1.1,1.6-1.6c0.2-0.2,0.4-0.4,0.4-0.7c0.1-0.4-0.1-0.6-0.4-0.7c-0.2-0.1-0.4-0.1-0.6-0.1c-1-0.1-1.9-0.1-2.9-0.1
	c-0.6,0-1.3,0-1.9,0c-0.2,0-0.3,0-0.5,0c-0.4,0-0.6-0.4-0.4-0.8c0.1-0.2,0.2-0.3,0.4-0.3c0.6-0.2,1.2-0.4,1.9-0.5
	c1.4-0.3,2.8-0.5,4.2-0.7c1.6-0.2,3.1-0.2,4.7,0c0.8,0.1,1.6,0.3,2.4,0.6c0.7,0.3,1.3,0.7,1.8,1.3c0,0,0.1,0.1,0.1,0.2
	C26.3,31.4,26.2,31.5,26.1,31.5z"/>
<path fill="#0B268A" d="M52.5,52c-0.3,0-0.6-0.1-0.9-0.1c-1.1-0.1-2.1-0.2-3.2-0.2c-1-0.1-2-0.1-3.1,0c-0.2,0-0.3,0.1-0.3,0.2
	c-0.3,0.7-0.5,1.5-0.5,2.3c0,1.1,0.2,2.1,0.7,3.1c1.6,0,3.2,0,4.8,0c0.1,0,0.2,0,0.3,0c0-0.7,0.2-1.4,0.5-2c0.4-0.7,0.9-1.3,1.7-1.6
	c0.1,0,0.1-0.1,0.1-0.1c0-0.5,0-0.9,0-1.4C52.7,52,52.6,52,52.5,52z"/>
</svg>
