<?xml version="1.0" encoding="utf-8"?>
<!-- Generator: Adobe Illustrator 24.0.1, SVG Export Plug-In . SVG Version: 6.00 Build 0)  -->
<svg version="1.1" id="Layer_1" xmlns="http://www.w3.org/2000/svg" xmlns:xlink="http://www.w3.org/1999/xlink" x="0px" y="0px"
	 viewBox="0 0 32 32" enable-background="new 0 0 32 32" xml:space="preserve">
<g>
	<circle fill="#FFEBEE" cx="16" cy="16" r="15"/>
	<path fill="#D60000" d="M16,32C7.178,32,0,24.822,0,16S7.178,0,16,0s16,7.178,16,16S24.822,32,16,32z M16,2C8.28,2,2,8.28,2,16
		s6.28,14,14,14s14-6.28,14-14S23.72,2,16,2z"/>
</g>
<path fill="#D60000" d="M15.955,14.188L22.142,8l1.767,1.767l-6.188,6.188l6.188,6.188l-1.767,1.767l-6.188-6.188L9.767,23.91
	L8,22.142l6.188-6.188L8,9.767L9.767,8L15.955,14.188z"/>
</svg>
