<?xml version="1.0" encoding="utf-8"?>
<!-- Generator: Adobe Illustrator 24.0.1, SVG Export Plug-In . SVG Version: 6.00 Build 0)  -->
<svg version="1.1" id="Layer_1" xmlns="http://www.w3.org/2000/svg" xmlns:xlink="http://www.w3.org/1999/xlink" x="0px" y="0px"
	 viewBox="0 0 6371.356 1233.844" enable-background="new 0 0 6371.356 1233.844" xml:space="preserve">
<path fill="#0B268A" d="M6370.939,252.167c0-1.652,0.272-3.304,0.417-4.957c-0.188-4.568-1.093-9.126-0.19-13.709
	c-7.246-74.135-37.291-135.205-101.593-176.599c-24.283-15.632-51.23-23.459-79.658-26.994c-13.267-1.65-26.563-1.841-39.901-1.841
	c-765.118,0.03-1530.236,0.12-2295.354-0.146c-62.396-0.022-115.714,21.163-162.038,61.948
	c-27.473,24.188-49.359,53.063-70.358,82.716c-1.918,2.709-3.891,5.38-5.875,8.042c-0.139,0.186-0.585,0.144-0.889,0.208
	c-0.576-0.271-1.356-0.388-1.697-0.838c-28.906-38.121-66.653-65.733-107.357-89.732c-49.537-29.206-102.734-48.572-159.547-57.698
	c-17.754-2.852-35.669-4.573-53.718-4.503c-27.992,0.109-55.984,0-83.976,0.048c-7.597,0.013-7.652,0.12-7.735,7.575
	c-0.076,6.839-0.016,13.68-1.837,21.17c-5.376-7.387-11.074-14.568-16.015-22.235c-3.26-5.059-7.045-6.928-13.071-6.672
	c-11.642,0.493-23.32,0.144-34.984,0.144c-674.477,0-1348.954-0.137-2023.43,0.186C1033.89,28.317,961.969,50.874,897.15,95.3
	c-8.452,5.792-13.159,11.815-11.881,22.608c1.07,9.044,0.22,18.315,0.22,28.238c-4.892-1.049-7.435-3.768-10.305-5.78
	c-54.925-38.512-112.216-72.812-174.998-97.163C646.242,22.281,590.461,8.651,532.901,2.421c-2.976-0.322-5.986-0.332-8.98-0.487
	C515.823,2.326,507.708,2.918,499.877,0c-11.998,0-23.996,0-35.994,0c-8.547,2.606-17.294,2.462-26.072,1.896
	c-48.392,3.33-95.582,12.635-140.551,30.931c-84.794,34.498-162.171,80.98-228.859,144.251
	c-23.897,22.673-46.461,46.55-66.357,72.853c-0.138,1.067-0.692,1.701-1.817,1.74L0,251.776
	c0.002,41.778,0.005,83.557,0.008,125.335c3.977,0.14,7.955,0.418,11.931,0.4c110.964-0.491,221.928-1.012,332.892-1.526
	c3.512-0.016,7.023-0.002,10.832-0.002c-0.852,4.386-3.477,6.047-5.441,8.126c-43.895,46.472-87.762,92.97-131.833,139.275
	c-4.423,4.647-6.466,9.199-6.443,15.725c0.232,66.224,0.137,132.448,0.158,198.673c0.001,2.836,0.237,5.672,0.416,9.678
	c220.99-90.293,440.941-180.162,662.334-270.62c0,5.39,0,9.288,0,13.187c0,168.722-0.011,337.445,0.018,506.168
	c0.002,15.688-1.615,13.535,14.041,13.549c74.653,0.065,149.306,0.056,223.959,0.006c14.61-0.01,12.714,1.699,12.716-12.722
	c0.035-260.572,0.025-521.143,0.026-781.715c0-3.993,0.195-7.996-0.012-11.979c-1.5-28.825,24.648-71.315,65.737-79.151
	c9.516-1.815,19.154-2.278,28.847-2.271c84.984,0.056,169.969,0.019,254.953,0.048c11.801,0.004,10.565-1.337,10.568,10.748
	c0.028,95.51,0.214,191.02-0.18,286.528c-0.065,15.848,5.507,28.33,16.128,39.325c9.311,9.639,19.898,17.702,30.987,25.11
	c45.327,30.282,95.034,50.429,147.798,63.487c15.036,3.721,30.064,4.482,45.554,2.737c30.196-3.402,59.756-9.83,89.217-16.882
	c71.671-17.156,141.629-39.385,208.498-70.678c13.518-6.326,12.903-5.868,21.969,5.926c9.881,12.854,16.681,26.192,14.605,42.898
	c-0.28,2.254,0.43,4.623,0.628,6.944c1.051,12.277,1.89,24.583,0.738,36.877c-2.573,27.442-11.658,52.124-33.655,70.002
	c-29.521,23.995-60.705,45.569-96.392,59.725c-52.929,20.996-108.288,29.758-164.851,32.078c-30.967,1.27-61.965,1.185-92.954,0.969
	c-16.667-0.116-33.301-1.051-49.784-3.701c-44.888-7.216-88.232-19.904-130.228-37.179c-35.83-14.739-70.262-32.067-100.64-56.495
	c-14.572-11.718-28.267-24.385-39.037-39.813c-10.783-15.446-17.308-32.314-14.745-51.494c0.763-5.708-2.108-6.735-6.335-7.833
	c-18.672-4.853-37.307-9.854-55.952-14.811c-11.447-3.044-22.888-6.107-34.438-9.189c-1.996,5.963-2.183,11.239-2.309,16.558
	c-0.432,18.289-1.16,36.574-1.427,54.865c-0.33,22.616-0.732,45.26,3.981,67.592c13.937,66.041,47.205,121.224,96.783,166.209
	c31.055,28.178,64.882,53.167,100.762,75.165c44.96,27.564,93.052,45.314,146.207,48.793c61.185,4.005,122.392,7.107,183.699,8.18
	c52.332,0.916,104.575,0.885,156.448-7.972c46.262-7.9,90.706-21.044,132.211-43.222c77.263-41.286,129.592-103.817,158.737-186.078
	c2.458-6.938,4.231-13.807,4.276-21.308c0.406-68.204,0.951-136.407,1.647-204.608c0.27-26.492-7.288-50.502-22.116-72.255
	c-14.692-21.554-31.715-41.153-51.645-58.04c-39.89-33.799-80.028-67.307-119.92-101.104c-4.506-3.817-8.306-4.927-14.286-3.024
	c-29.156,9.278-58.516,17.912-87.786,26.833c-2.035,0.62-4.499,0.708-5.648,2.847c3.557,3.772,6.89,7.442,10.368,10.967
	c7.308,7.406,7.696,12.821,1.431,20.981c-4.521,5.889-10.196,10.485-16.293,14.602c-15.045,10.158-31.662,16.907-48.951,22.06
	c-34.425,10.261-69.062,19.848-103.275,30.762c-14.158,4.516-28.08,4.733-42.397,3.47c-9.237-0.815-15.293-5.842-18.592-14.402
	c-1.113-2.887-1.014-5.872-1.014-8.859c-0.006-71.882-0.005-143.763-0.003-215.645c0-1.664,0.024-3.328,0.037-4.991
	c0.018-2.397,1.156-3.664,3.628-3.644c2,0.017,3.999-0.023,5.999-0.023c184.3-0.001,368.599,0.01,552.899-0.057
	c5.103-0.002,9.761,0.971,14.501,2.849c35.639,14.122,54.297,42.543,64.945,77.358c5.702,18.645,5.209,38.027,5.197,57.38
	c-0.162,245.929-0.106,491.858-0.106,737.787c0,1.997,0.134,4.004-0.021,5.988c-0.352,4.499,1.178,7.021,6.152,6.548
	c1.981-0.189,3.996-0.025,5.996-0.025c74.32,0,148.639,0.025,222.959-0.022c13.653-0.009,11.981,1.669,11.984-12.432
	c0.034-173.049,0.022-346.097,0.022-519.146c0-78.205-0.03-156.409,0.024-234.614c0.011-15.697-0.52-31.444-5.268-46.429
	c-10.482-33.085-28.036-60.69-62.586-74.477c21.193-2.027,513.267-1.172,520.422,0.913c-1.139,0.912-2.119,1.801-3.198,2.547
	c-71.261,49.238-139.28,102.833-208.545,154.752c-47.272,35.434-79.676,81.521-98.994,137.082
	c-6.051,17.403-9.312,35.266-10.479,53.642c-0.869,13.669,0.492,27.255,0.471,40.884c-0.122,79.867-0.118,159.735-0.231,239.603
	c-0.009,6.391,0.541,12.731,2.525,18.717c12.268,37.019,31.222,69.802,62.189,94.494c30.212,24.089,61.69,46.49,93.7,68.123
	c73.949,49.976,152.258,91.386,237.107,119.899c57.082,19.182,115.338,27.314,175.135,16.858
	c51.355-8.98,95.719-32.152,131.823-69.9c26.464-27.669,52.085-56.142,78.026-84.309c1.937-2.104,4.636-3.738,5.209-6.804
	c-0.964-1.688-2.562-2.256-4.023-3.043c-26.37-14.194-52.792-28.293-79.04-42.708c-4.709-2.586-7.131-2.4-10.119,2.457
	c-12.017,19.537-29.929,30.584-52.238,35.17c-19.643,4.038-39.168,3.265-58.411-1.654c-39.307-10.05-76.079-26.086-110.199-48.091
	c-32.168-20.747-64.327-41.508-96.543-62.18c-7.84-5.031-15.699-10.086-23.876-14.529c-27.604-14.998-52.908-33.375-77.733-52.433
	c-14.27-10.956-28.104-22.537-40.323-35.766c-12.018-13.01-19.621-27.569-18.99-46.511c1.282-38.561,1.087-77.173,1.332-115.765
	c0.296-46.584,0.516-93.169,0.529-139.754c0.002-8.896,1.979-17.081,5.778-24.99c3.185-6.629,7.182-12.737,11.57-18.617
	c14.009-18.774,30.494-35.247,47.945-50.743c71.232-63.249,149.71-116.404,231.304-165.21c3.647-2.181,7.346-2.585,11.396-2.703
	c24.09-0.705,47.893,2.161,71.609,5.791c31.638,4.843,62.907,11.281,92.51,23.968c17.546,7.52,34.095,16.708,47.73,30.367
	c22.808,22.849,27.027,45.96,14.484,75.528c-3.039,7.165-7.539,11.761-14.542,15.227c-45.335,22.437-90.383,45.452-134.11,70.916
	c-23.327,13.584-45.803,28.444-66.365,46.077c-29.894,25.636-44.722,57.794-44.332,97.315c0.44,44.589,0.082,89.186,0.121,133.779
	c0.006,6.984,0.438,13.917,2.203,20.765c3.788,14.699,12.085,26.488,23.029,36.655c7.595,7.056,16.132,12.872,24.799,18.483
	c53.645,34.726,113.646,52.994,175.138,67.424c4.037,0.948,5.989-0.885,8.162-3.81c10.523-14.157,21.144-28.246,31.932-42.202
	c5.837-7.551,12.079-14.789,18.128-22.156c-1.972-1.943-4.069-1.218-5.92-1.503c-14.492-2.233-28.996-4.446-42.195-11.386
	c-18.13-9.533-23.289-25.11-14.595-43.547c4.178-8.861,10.317-16.267,17.083-23.206c12.639-12.965,27.23-23.463,42.552-32.946
	c56.952-35.246,119.438-56.517,184.014-72.531c4.42-1.096,7.586,0.149,11.061,2.545c44.126,30.428,88.313,60.767,132.496,91.113
	c4.978,3.419,9.477,7.348,13.184,12.119c10.269,13.215,10.469,28.893,0.645,42.478c-3.353,4.637-7.714,8.244-11.898,12.058
	c-3.053,2.783-6.723,5.04-9.137,9.067c23.24,18.229,46.127,35.967,68.715,54.077c4.541,3.641,7.208,0.898,10.492-1.121
	c53.874-33.125,107.813-66.146,161.583-99.438c27.653-17.122,38.059-42.963,34.2-74.265c-4.195-34.029-21.757-59.929-51.053-78.215
	c-52.531-32.789-104.719-66.117-154.684-102.771c-6.742-4.945-13.036-10.378-18.601-16.597
	c-19.194-21.45-22.293-46.581-8.595-71.926c3.943-7.296,8.502-14.305,13.253-21.115c27.46-39.355,60.852-73.103,98.366-102.876
	c16.965-13.465,34.416-26.235,54.069-35.673c9.419-4.523,18.999-7.6,29.75-6.736c7.947,0.639,15.994,0.327,23.983,0.058
	c5.817-0.196,11.187,1.078,16.463,3.295c27.281,11.466,44.126,32.465,53.928,59.573c6.514,18.015,8.457,36.817,8.451,55.929
	c-0.062,239.273-0.041,478.546-0.041,717.819c0,13.644-0.043,27.289,0.017,40.933c0.035,8.198,0.106,8.326,8.13,8.329
	c75.986,0.033,151.972,0.033,227.958-0.001c7.676-0.004,7.679-0.139,7.854-7.59c0.022-0.998,0.003-1.997,0.003-2.995
	c0-233.283-0.01-466.566,0.024-699.849c0.002-13.014-1.08-25.902-3.285-38.719c-8.773-50.984-31.297-95.007-67.034-132.378
	c-1.468-1.535-3.919-2.646-3.386-5.308c1.208-1.389,2.608-0.938,3.836-0.939c49.658-0.03,99.315,0.015,148.973-0.098
	c4.493-0.01,8.481,1.201,12.517,2.81c37.105,14.788,55.863,44.584,66.084,81.097c4.618,16.499,4.161,33.535,4.154,50.54
	c-0.108,247.593-0.076,495.186-0.067,742.779c0,11.615-1.051,10.667,10.8,10.668c74.653,0.01,149.306,0.026,223.959-0.013
	c14.218-0.007,12.584,1.593,12.586-12.965c0.026-247.26,0.003-494.52,0.064-741.78c0.003-11.996-0.341-23.964-1.488-35.886
	c-3.022-31.407-16.179-57.957-38.967-79.772c-7.704-7.375-16.827-12.505-26.646-17.407c2.165,0,4.33,0,6.494,0
	c291.28,0,582.561,0,873.84,0.016c2.979,0,5.974-0.287,8.906,0.74c18.445,6.46,35.857,14.846,48.735,30.019
	c16.805,19.8,29.183,41.971,33.971,67.908c2.55,13.814,3.078,27.685,3.044,41.695c-0.169,70.883-0.062,141.767-0.134,212.65
	c-0.004,3.011,1.127,6.36-1.118,9.388c-3.294-2.315-4.455-5.549-6.203-8.294c-14.844-23.31-30.597-45.98-47.229-68.057
	c-30.253-40.156-64.56-76.22-106.475-104.44c-78.498-52.849-165.789-67.315-257.797-54.843c-72.19,9.786-141.622,30.98-208.275,60.6
	c-44.17,19.628-84.351,45.368-119.034,79.3c-30.693,30.029-45.315,66.722-45.383,109.311c-0.134,84.86-0.178,169.721,0.015,254.581
	c0.098,43.277,18.44,76.135,57.222,96.774c2.643,1.407,5.259,2.865,7.93,4.219c26.919,13.64,55.582,20.453,85.665,20.329
	c19.035-0.078,37.684-4.177,56.216-8.32c53.647-11.993,106.094-28.114,157.96-46.177c48.694-16.958,97.421-33.875,144.03-56.147
	c21.649-10.345,42.546-21.915,61.474-36.949c27.505-21.847,36.168-50.673,32.83-84.26c-2.929-29.477-15.653-54.687-34.322-77.221
	c-25.341-30.585-54.032-57.916-82.739-85.25c-3.909-3.722-7.337-3.239-11.633-1.89c-28.874,9.073-57.781,18.043-86.663,27.092
	c-2.089,0.655-4.812,0.334-5.932,3.765c3.584,3.919,7.373,8.082,11.186,12.223c3.833,4.165,7.852,8.172,11.505,12.487
	c11.721,13.844,11.805,26.335,0.463,40.459c-8.438,10.509-19.785,16.628-32.224,20.925c-9.744,3.365-19.625,6.329-29.44,9.49
	c-43.372,13.972-86.743,27.949-130.113,41.927c-14.479,4.667-29.096,6.869-44.219,3.19c-9.118-2.218-15.239-7.587-19.087-16.034
	c-4.616-10.133-4.74-20.646-3.011-31.295c3.51-21.627,15.218-38.77,30.359-53.844c12.56-12.503,26.745-23.035,41.741-32.414
	c37.549-23.487,76.062-45.189,116.469-63.513c46.087-20.9,93.456-36.533,144.439-39.963c44.188-2.972,85.447,5.244,123.254,28.847
	c10.235,6.389,19.551,13.82,27.309,23.137c45.131,54.203,83.414,112.802,114.704,176.043
	c31.049,62.751,48.567,128.221,46.496,198.895c-1.579,53.865-0.326,107.813-0.301,161.725c0.004,8.885,0.082,8.985,8.516,8.989
	c75.319,0.027,150.639,0.026,225.958,0.001c8.885-0.003,8.886-0.094,9.028-8.6c0.011-0.666,0.003-1.331,0.003-1.997
	c0-245.929,0.01-491.858-0.033-737.787c-0.002-13.647-0.569-27.32-4.038-40.604c-10.509-40.237-33.729-71.015-69.486-92.372
	c-2.843-1.698-6.553-2.409-8.882-6.452c51.687,0,102.311,0.029,152.936-0.057c3.867-0.007,7.101,1.505,10.452,2.923
	c40.07,16.962,61.084,49.82,73.941,89.166c5.757,17.618,5.183,36.006,5.172,54.353c-0.142,242.934-0.098,485.868-0.064,728.801
	c0,3.625-0.638,7.324,0.706,10.875c78.64,0.06,157.279,0.121,235.918,0.181c0.333,0,0.667,0.01,0.999-0.004
	c7.113-0.288,7.157-0.302,7.405-7.361c0.093-2.659,0.019-5.323,0.018-7.985C6370.992,745.949,6370.956,499.058,6370.939,252.167z
	 M887.446,275.161c-121.412,47.444-242.853,94.812-364.295,142.18c-5.884,2.295-11.838,4.416-17.691,6.787
	c-3.519,1.425-7.116,1.814-10.779,1.279c-10.627-1.554-14.514-9.72-9.076-18.908c2.225-3.76,5.282-6.825,8.352-9.887
	c20.036-19.988,40.034-40.012,60.087-59.982c7.459-7.428,13.204-15.783,15.346-26.307c2.65-13.019-2.046-21.122-14.828-25.121
	c-7.027-2.199-14.288-3.062-21.617-3.558c-35.587-2.406-71.221-2.847-106.874-2.703c-23.656,0.095-47.313,0.091-70.969-0.031
	c-6.315-0.033-12.656-0.393-18.934-1.075c-15.108-1.643-21.658-15.029-13.865-28.234c3.688-6.248,9.181-10.168,16.131-12.605
	c22.639-7.941,45.812-13.925,69.173-19.194c51.35-11.583,103.247-20.109,155.586-25.5c57.82-5.956,115.735-6.625,173.435,1.676
	c30.312,4.361,60.453,9.869,88.979,21.675c26.304,10.886,48.99,26.75,66.808,49.166c1.436,1.806,3.2,3.42,3.712,5.863
	C893.975,273.568,890.45,273.987,887.446,275.161z"/>
<path fill="#0B268A" d="M1868.636,1036.395c-11.256-1.148-22.456-2.927-33.729-3.822c-39.49-3.134-78.984-6.24-118.508-8.899
	c-37.904-2.55-75.865-2.293-113.833-1.403c-6.667,0.156-10.061,2.71-12.734,8.635c-12.353,27.382-18.227,55.942-18.818,85.994
	c-0.806,41.025,8.3,79.7,24.778,116.944c59.783-0.039,119.565-0.066,179.348-0.14c3.971-0.005,7.942-0.367,11.913-0.563
	c0.203-26.734,6.768-52.002,18.444-75.88c13.285-27.168,31.869-49.004,62.271-57.969c2.897-0.854,4.445-2.151,4.521-5.452
	c0.399-17.282,0.953-34.562,1.55-51.838C1873.97,1038.221,1872.321,1036.77,1868.636,1036.395z"/>
</svg>
