<?xml version="1.0" encoding="utf-8"?>
<!-- Generator: Adobe Illustrator 24.0.1, SVG Export Plug-In . SVG Version: 6.00 Build 0)  -->
<svg version="1.1" id="Layer_1" xmlns="http://www.w3.org/2000/svg" xmlns:xlink="http://www.w3.org/1999/xlink" x="0px" y="0px"
	 viewBox="0 0 290 100" enable-background="new 0 0 290 100" xml:space="preserve">
<path fill="#EE4023" d="M144.588,31.149c6.306,0,11.414-5.111,11.414-11.408c0-6.303-5.108-11.414-11.414-11.414
	c-6.296,0-11.409,5.111-11.409,11.414C133.179,26.04,138.292,31.149,144.588,31.149z"/>
<path fill="#EE4023" d="M145.168,1.135l-1.162,0.001l0.006,5.678l1.162-0.001L145.168,1.135z"/>
<path fill="#EE4023" d="M153.373,3.273l-2.774,4.995l1.015,0.564l2.774-4.995L153.373,3.273z"/>
<path fill="#EE4023" d="M160.113,9.788l-4.833,2.976l0.609,0.99l4.834-2.976L160.113,9.788z"/>
<path fill="#EE4023" d="M135.985,3.223L134.97,3.79l2.761,4.942l1.015-0.567L135.985,3.223z"/>
<path fill="#EE4023" d="M129.211,9.729l-0.594,0.998l4.844,2.884l0.594-0.998L129.211,9.729z"/>
<path fill="#231F20" d="M97.262,22.539c-9.248,5.97-12.711,7.673-12.711,7.673v5.861c11.847-5.614,19.113,1.546,19.113,1.546v2.008
	h5.548c0,0,0-14.856,0-17.025c0-2.171-1.801-2.955-1.801-2.955h9.943c0,0-3.017,0.868-4.314,1.74c-1.519,1.019-1.2,2.677-1.2,2.677
	l6.78,2.817c0,0,0.829,0.243,0.859,0.843c0.05,0.711-0.863,0.931-0.863,0.931s-3.906,0.303-5.857,1.903
	c-1.405,1.158-1.078,2.158-1.078,2.158v2.912c0,0.247,0,0.449,0.129,0.574c1.548,1.603,4.505,2.092,4.505,2.092l2.394-1.306
	c-2.525-0.193-2.635-0.772-2.672-1.262c-0.02-0.394,0.391-1.658,5.681-1.93c4.735-0.24,9.393,3.156,9.393,3.156v2.656h5.539
	c0,0,0-16.128,0-16.889c0-0.976-0.27-4.897-5.232-4.897l-4.831-0.033h-26.459v0.774c3.602,0.364,3.532,2.807,3.532,2.807v11.903
	c-3.92-3.417-9.059-3.622-9.059-3.622c2.771-1.516,4.785-3.261,5.878-4.178c0.366-0.312,0.876-1.108,0.312-2.314
	c-0.871-1.862-1.886-3.289-3.489-4.72c-2.359-2.105-5.396-0.736-5.396-0.736l-2.946,1.329C81.4,14.794,76.91,18.73,76.91,18.73v0.87
	c-11.693-7.789-19.586,2.097-19.586,2.097v2.53l7.948-0.02l-3.267,3.117v4.38l14.697-5.469v7.496c0,0-3.122-2.136-7.175-1.238
	c-2.495,0.552-6.3,2.021-7.376,2.07c-4.896,0.218-5.22-3.236-5.278-4.996c-0.042-1.253,1.392-1.067,1.392-1.067v-2.158h-6.381
	c0,0-0.326,2.014-0.109,3.8c0.544,5.288,3.575,7.371,6.195,7.944c5.054,1.107,8.521-2.044,11.883-2.339
	c4.061-0.365,6.82,2.464,6.82,2.464v1.247h5.547V20.951c0.315-0.939,1.138-1.319,1.441-1.371c2.398-0.437,3.391,0.197,3.391,0.197
	s-0.715,0.368-1.729,1.123c-0.984,0.711-0.618,2.194-0.547,3.387c0.076,1.196,2.169,2.036,2.169,2.036l1.781-0.872
	c-1.627-0.538-0.651-1.556-0.651-1.556s6.285-2.93,7.369-3.4c0,0,0.183-0.091,0.58-0.226s0.861-0.076,1.115,0.455
	C97.39,21.257,97.776,22.209,97.262,22.539z M68.718,25.103c0,0-0.418,0.262-0.643,0.016c-0.107-0.106-0.039-0.305,0.205-0.539
	l1.272-1.169c0,0,1.116-1.042-0.439-1.119c-1.564-0.071-3.916-0.065-3.916-0.065s-0.735,0.091-0.786-0.243
	c-0.032-0.158-0.028-0.353,0.241-0.522c0.62-0.403,9.941-2.535,12.517,0.612L68.718,25.103z M128.013,27.824
	c0,0,0.432-1.573-2.646-2.91c-0.406-0.178-3.133-1.429-5.797-2.521c-0.436-0.172-0.659-0.976,0.14-1.265
	c0.798-0.288,5.051-1.481,5.051-1.481h3.71c0,0,2.626,0.012,2.626,2.581l0.011,10.276c0,0-2.037-2.078-6.324-3.341L128.013,27.824z"
	/>
<path fill="#231F20" d="M232.89,17.719h-41.709h-40.53v2.101l5.808-0.002c-6.25,1.907-5.606,5.026-5.606,5.026v5.467
	c0.151,2.734,3.285,2.427,3.285,2.427s3.206-0.513,5.049-1.265c2.242-0.703,3.289-1.432,3.289-1.432
	c2.375-1.098,1.519-3.019,1.453-3.195c-0.518-1.273-2.503-2.919-2.503-2.919l-2.258,0.705l0.495,0.489
	c0.836,0.611-0.71,1.447-0.71,1.447l-3.606,1.141c-1.862,0.441-1.233-0.898-1.139-1.08c0.509-1.146,2.755-2.227,3.537-2.635
	c5.725-3.03,7.133-0.531,7.79,0.176c4.311,4.604,0.182,8.193-0.72,8.995c-2.697,2.421-6.56,4.649-11.625,4.708
	c-5.618,0.065-6.922-2.643-6.922-2.643l0.522-1.249l-2.019-1.041l-4.627,5.51c17.156,11.706,29.348-3.53,29.348-3.53
	c2.702,0.917,4.217,2.766,4.217,2.766v1.781h5.394v-16.76c-0.038-2.48-1.68-2.888-1.68-2.888h3.656
	c1.937,0.713,1.712,2.919,1.712,2.919v16.729h5.603V22.49c-0.022-2.415-1.784-2.673-1.784-2.673h4.33h7.86
	c-1.031,0.684-2.103,1.505-4.773,3.52c-2.663,2.244-2.239,4.823-2.239,4.823v5.313c-0.071,0.965,0.899,2.22,1.368,2.588
	c3.571,2.808,6.522,3.91,7.959,4.332c4.174,1.225,6.314-1.244,6.314-1.244l1.927-2.074l-1.982-1.072
	c-1.414,2.24-4.962-0.173-4.962-0.173s-2.227-1.318-3.179-1.89c-2.754-1.759-2.7-2.538-2.7-2.538l0.025-6.068
	c0.256-1.828,6.533-5.519,6.533-5.519h18.15c2.125,0.699,1.896,3.045,1.896,3.045v3.629c-2.673-2.065-4.719-0.834-4.719-0.834
	l-3.353,1.673c0,0,0.847-1.204,1.868-2.642c0.956-1.361-0.373-1.791-3.252-3.118c-3.713-1.713-6.019,0.08-6.019,0.08
	s-2.304,1.232-4.699,2.985c-2.393,1.758-2.183,3.465-2.183,3.465v2.641c1.329,2.247,4.45,1.56,4.45,1.56l0.764-1.511
	c-1.959-0.116-1.588-0.995-1.312-1.329c0,0,7.5-4.575,8.874-5.29c0.204-0.106,0.666,0.062,0.482,0.459
	c-0.711,1.543-3.807,5.197-4.018,5.724c-1.298,3.337,0.954,4.226,0.954,4.226l9.232-4.561c2.396-1.148,2.931,0.593,2.931,0.593
	v9.085h5.382V22.862c0.025-2.382-1.883-3.045-1.883-3.045h3.624c2.121,0.883,1.921,3.057,1.921,3.057v16.825h5.296
	c0,0,0-14.768,0-16.841C237.477,20.786,236.443,17.719,232.89,17.719z M173.71,32.811c0,0-0.966-1.45-2.575-2.284
	c0,0,0.778-7.636-7.464-10.71h8.387c0,0,1.626,0.409,1.652,2.906V32.811z"/>
<rect y="44" fill="none" width="289.177" height="56"/>
<path fill="#0B268A" d="M289.158,55.445c0-0.075,0.012-0.15,0.019-0.225c-0.009-0.207-0.05-0.414-0.009-0.622
	c-0.329-3.365-1.692-6.137-4.611-8.015c-1.102-0.709-2.325-1.065-3.615-1.225c-0.602-0.075-1.206-0.083-1.811-0.083
	c-34.727,0.001-69.453,0.005-104.179-0.007c-2.832-0.001-5.252,0.961-7.355,2.812c-1.247,1.098-2.24,2.408-3.193,3.754
	c-0.087,0.123-0.177,0.244-0.267,0.365c-0.006,0.008-0.026,0.007-0.04,0.009c-0.026-0.012-0.062-0.018-0.077-0.038
	c-1.312-1.73-3.025-2.983-4.873-4.073c-2.248-1.326-4.663-2.205-7.241-2.619c-0.806-0.129-1.619-0.208-2.438-0.204
	c-1.271,0.005-2.541,0-3.812,0.002c-0.345,0.001-0.347,0.005-0.351,0.344c-0.003,0.31-0.001,0.621-0.083,0.961
	c-0.244-0.335-0.503-0.661-0.727-1.009c-0.148-0.23-0.32-0.314-0.593-0.303c-0.529,0.022-1.059,0.007-1.588,0.007
	c-30.613,0-61.225-0.006-91.838,0.008c-3.551,0.002-6.815,1.025-9.757,3.042c-0.384,0.263-0.597,0.536-0.539,1.026
	c0.049,0.411,0.01,0.831,0.01,1.282c-0.222-0.048-0.337-0.171-0.468-0.262c-2.493-1.748-5.093-3.305-7.943-4.41
	c-2.448-0.95-4.98-1.568-7.593-1.851c-0.135-0.015-0.272-0.015-0.408-0.022c-0.368,0.018-0.736,0.045-1.091-0.088
	c-0.545,0-1.089,0-1.634,0c-0.388,0.118-0.785,0.112-1.183,0.086c-2.196,0.151-4.338,0.573-6.379,1.404
	c-3.849,1.566-7.36,3.675-10.387,6.547c-1.085,1.029-2.109,2.113-3.012,3.306c-0.006,0.048-0.031,0.077-0.082,0.079L0,55.427
	c0,1.896,0,3.792,0,5.688c0.181,0.006,0.361,0.019,0.542,0.018c5.036-0.022,10.073-0.046,15.109-0.069c0.159-0.001,0.319,0,0.492,0
	c-0.039,0.199-0.158,0.274-0.247,0.369c-1.992,2.109-3.983,4.22-5.983,6.321c-0.201,0.211-0.293,0.417-0.292,0.714
	c0.011,3.006,0.006,6.011,0.007,9.017c0,0.129,0.011,0.257,0.019,0.439c10.03-4.098,20.013-8.177,30.061-12.283
	c0,0.245,0,0.422,0,0.599c0,7.658,0,15.315,0.001,22.973c0,0.712-0.073,0.614,0.637,0.615c3.388,0.003,6.777,0.002,10.165,0
	c0.663,0,0.577,0.077,0.577-0.577c0.002-11.826,0.001-23.653,0.001-35.479c0-0.181,0.009-0.363-0.001-0.544
	c-0.068-1.308,1.119-3.237,2.984-3.592c0.432-0.082,0.869-0.103,1.309-0.103c3.857,0.003,7.714,0.001,11.572,0.002
	c0.536,0,0.479-0.061,0.48,0.488c0.001,4.335,0.01,8.67-0.008,13.004c-0.003,0.719,0.25,1.286,0.732,1.785
	c0.423,0.438,0.903,0.803,1.406,1.14c2.057,1.374,4.313,2.289,6.708,2.882c0.682,0.169,1.364,0.203,2.067,0.124
	c1.37-0.154,2.712-0.446,4.049-0.766c3.253-0.779,6.428-1.788,9.463-3.208c0.614-0.287,0.586-0.266,0.997,0.269
	c0.449,0.583,0.757,1.189,0.663,1.947c-0.013,0.102,0.02,0.21,0.028,0.315c0.048,0.557,0.086,1.116,0.034,1.674
	c-0.117,1.245-0.529,2.366-1.527,3.177c-1.34,1.089-2.755,2.068-4.375,2.711c-2.402,0.953-4.915,1.351-7.482,1.456
	c-1.406,0.058-2.812,0.054-4.219,0.044c-0.757-0.005-1.511-0.048-2.26-0.168c-2.037-0.327-4.005-0.903-5.911-1.687
	c-1.626-0.669-3.189-1.455-4.568-2.564c-0.661-0.532-1.283-1.107-1.772-1.807c-0.489-0.701-0.785-1.467-0.669-2.337
	c0.035-0.259-0.096-0.306-0.287-0.355c-0.847-0.22-1.693-0.447-2.54-0.672c-0.52-0.138-1.039-0.277-1.563-0.417
	c-0.09,0.271-0.099,0.51-0.105,0.752c-0.02,0.83-0.053,1.66-0.065,2.49c-0.015,1.026-0.033,2.054,0.181,3.068
	c0.632,2.997,2.142,5.502,4.393,7.544c1.41,1.279,2.945,2.413,4.573,3.412c2.041,1.251,4.223,2.057,6.636,2.214
	c2.777,0.182,5.555,0.323,8.337,0.371c2.375,0.042,4.746,0.04,7.101-0.362c2.1-0.359,4.117-0.955,6.001-1.962
	c3.507-1.874,5.882-4.712,7.204-8.446c0.112-0.315,0.192-0.627,0.194-0.967c0.019-3.095,0.043-6.191,0.075-9.286
	c0.012-1.202-0.331-2.292-1.004-3.279c-0.667-0.978-1.439-1.868-2.344-2.634c-1.811-1.534-3.632-3.055-5.443-4.589
	c-0.204-0.173-0.377-0.224-0.648-0.137c-1.323,0.421-2.656,0.813-3.984,1.218c-0.092,0.028-0.204,0.032-0.256,0.129
	c0.161,0.171,0.313,0.338,0.471,0.498c0.332,0.336,0.349,0.582,0.065,0.952c-0.205,0.267-0.463,0.476-0.74,0.663
	c-0.683,0.461-1.437,0.767-2.222,1.001c-1.562,0.466-3.135,0.901-4.687,1.396c-0.643,0.205-1.274,0.215-1.924,0.158
	c-0.419-0.037-0.694-0.265-0.844-0.654c-0.05-0.131-0.046-0.266-0.046-0.402c0-3.262,0-6.525,0-9.787
	c0-0.076,0.001-0.151,0.002-0.227c0.001-0.109,0.052-0.166,0.165-0.165c0.091,0.001,0.182-0.001,0.272-0.001
	c8.365,0,16.73,0,25.094-0.003c0.232,0,0.443,0.044,0.658,0.129c1.618,0.641,2.465,1.931,2.948,3.511
	c0.259,0.846,0.236,1.726,0.236,2.604c-0.008,11.162-0.005,22.324-0.005,33.486c0,0.091,0.006,0.182-0.001,0.272
	c-0.016,0.204,0.053,0.319,0.279,0.297c0.09-0.009,0.182-0.001,0.272-0.001c3.374,0,6.747,0.001,10.12-0.001
	c0.619,0,0.544,0.076,0.544-0.564c0.001-7.854,0.001-15.708,0.001-23.562c0-3.549-0.002-7.099,0.001-10.648
	c0-0.713-0.024-1.427-0.239-2.107c-0.476-1.502-1.273-2.755-2.841-3.38c0.962-0.092,23.296-0.053,23.621,0.042
	c-0.052,0.041-0.097,0.082-0.146,0.116c-3.234,2.235-6.321,4.667-9.465,7.024c-2.145,1.608-3.616,3.7-4.493,6.222
	c-0.275,0.79-0.423,1.601-0.476,2.435c-0.039,0.62,0.023,1.237,0.022,1.856c-0.006,3.625-0.006,7.25-0.011,10.875
	c0,0.29,0.025,0.578,0.115,0.85c0.557,1.68,1.417,3.168,2.823,4.289c1.371,1.093,2.799,2.11,4.252,3.092
	c3.357,2.268,6.911,4.148,10.762,5.442c2.591,0.871,5.235,1.24,7.949,0.765c2.331-0.408,4.344-1.459,5.983-3.173
	c1.201-1.256,2.364-2.548,3.541-3.826c0.088-0.096,0.211-0.17,0.237-0.309c-0.044-0.077-0.117-0.102-0.183-0.138
	c-1.197-0.644-2.396-1.284-3.587-1.938c-0.214-0.117-0.324-0.109-0.46,0.111c-0.545,0.887-1.358,1.388-2.371,1.596
	c-0.891,0.183-1.777,0.148-2.651-0.075c-1.784-0.456-3.453-1.184-5.001-2.183c-1.46-0.942-2.92-1.884-4.382-2.822
	c-0.356-0.228-0.713-0.458-1.084-0.659c-1.253-0.681-2.401-1.515-3.528-2.38c-0.648-0.497-1.275-1.023-1.83-1.623
	c-0.545-0.59-0.891-1.251-0.862-2.111c0.058-1.75,0.049-3.503,0.061-5.254c0.013-2.114,0.023-4.229,0.024-6.343
	c0-0.404,0.089-0.775,0.262-1.134c0.144-0.301,0.326-0.578,0.525-0.845c0.636-0.852,1.384-1.6,2.176-2.303
	c3.233-2.871,6.795-5.283,10.498-7.498c0.166-0.099,0.334-0.117,0.517-0.123c1.094-0.032,2.174,0.098,3.251,0.263
	c1.436,0.22,2.855,0.512,4.198,1.088c0.797,0.341,1.548,0.758,2.167,1.378c1.035,1.037,1.226,2.086,0.657,3.428
	c-0.138,0.325-0.342,0.534-0.66,0.691c-2.058,1.018-4.102,2.063-6.087,3.219c-1.059,0.617-2.079,1.291-3.012,2.091
	c-1.357,1.163-2.03,2.623-2.012,4.417c0.02,2.024,0.004,4.048,0.005,6.072c0.001,0.317,0.02,0.632,0.1,0.942
	c0.172,0.667,0.549,1.202,1.046,1.664c0.344,0.32,0.732,0.584,1.125,0.839c2.435,1.576,5.158,2.405,7.949,3.06
	c0.183,0.043,0.272-0.04,0.371-0.173c0.477-0.643,0.959-1.282,1.449-1.915c0.265-0.343,0.548-0.671,0.823-1.006
	c-0.09-0.088-0.185-0.055-0.269-0.068c-0.658-0.101-1.316-0.202-1.915-0.517c-0.823-0.433-1.057-1.14-0.662-1.976
	c0.189-0.402,0.468-0.738,0.775-1.053c0.574-0.588,1.236-1.065,1.931-1.495c2.585-1.6,5.421-2.565,8.352-3.292
	c0.201-0.05,0.344,0.007,0.502,0.116c2.003,1.381,4.008,2.758,6.014,4.135c0.226,0.155,0.43,0.333,0.598,0.55
	c0.466,0.6,0.475,1.311,0.029,1.928c-0.152,0.21-0.35,0.374-0.54,0.547c-0.138,0.126-0.305,0.229-0.414,0.412
	c1.054,0.827,2.093,1.632,3.118,2.454c0.206,0.165,0.328,0.041,0.477-0.051c2.445-1.504,4.893-3.002,7.333-4.513
	c1.255-0.777,1.728-1.95,1.553-3.371c-0.191-1.544-0.988-2.72-2.318-3.55c-2.384-1.488-4.752-3.001-7.02-4.664
	c-0.306-0.224-0.592-0.471-0.844-0.753c-0.872-0.973-1.012-2.114-0.391-3.264c0.179-0.331,0.386-0.649,0.602-0.958
	c1.246-1.786,2.762-3.318,4.464-4.669c0.77-0.611,1.563-1.191,2.455-1.619c0.427-0.205,0.862-0.345,1.35-0.306
	c0.36,0.029,0.726,0.015,1.088,0.003c0.264-0.009,0.508,0.049,0.748,0.15c1.238,0.52,2.002,1.473,2.447,2.704
	c0.296,0.818,0.384,1.671,0.384,2.538c-0.003,10.86-0.002,21.72-0.002,32.579c0,0.619-0.002,1.239,0.001,1.858
	c0.001,0.372,0.004,0.378,0.369,0.378c3.448,0.002,6.897,0.002,10.346,0c0.348,0,0.348-0.006,0.356-0.344
	c0.001-0.045,0.001-0.091,0.001-0.136c0-10.588-0.001-21.176,0.001-31.764c0-0.591-0.049-1.176-0.149-1.757
	c-0.399-2.314-1.421-4.312-3.043-6.008c-0.067-0.07-0.178-0.12-0.154-0.241c0.055-0.063,0.119-0.043,0.175-0.043
	c2.253-0.001,4.507,0.001,6.761-0.004c0.204,0,0.385,0.055,0.568,0.128c1.684,0.671,2.536,2.024,2.999,3.681
	c0.21,0.749,0.189,1.522,0.189,2.294c-0.005,11.237-0.003,22.475-0.003,33.712c0,0.527-0.048,0.484,0.49,0.484
	c3.388,0,6.777,0.001,10.165-0.001c0.645,0,0.571,0.072,0.571-0.588c0.001-11.222,0-22.445,0.003-33.667
	c0-0.544-0.015-1.088-0.067-1.629c-0.138-1.425-0.735-2.631-1.769-3.621c-0.35-0.335-0.764-0.568-1.209-0.79
	c0.098,0,0.196,0,0.294,0c13.221,0,26.441,0,39.661,0.001c0.136,0,0.271-0.013,0.405,0.034c0.837,0.293,1.627,0.674,2.211,1.362
	c0.763,0.899,1.325,1.905,1.542,3.082c0.116,0.627,0.14,1.257,0.138,1.892c-0.007,3.217-0.002,6.434-0.006,9.652
	c0,0.137,0.052,0.289-0.05,0.426c-0.15-0.105-0.203-0.252-0.282-0.376c-0.674-1.058-1.389-2.087-2.143-3.089
	c-1.374-1.823-2.931-3.459-4.833-4.74c-3.563-2.399-7.525-3.055-11.701-2.489c-3.276,0.444-6.428,1.406-9.453,2.75
	c-2.004,0.891-3.828,2.059-5.402,3.599c-1.393,1.363-2.057,3.028-2.06,4.961c-0.006,3.852-0.008,7.703,0.001,11.555
	c0.004,1.964,0.837,3.455,2.597,4.392c0.12,0.064,0.238,0.13,0.36,0.191c1.221,0.619,2.522,0.928,3.888,0.923
	c0.864-0.004,1.71-0.19,2.551-0.378c2.435-0.544,4.815-1.276,7.17-2.096c2.21-0.77,4.421-1.537,6.537-2.548
	c0.982-0.469,1.931-0.995,2.79-1.677c1.248-0.992,1.641-2.3,1.49-3.824c-0.133-1.338-0.711-2.482-1.558-3.505
	c-1.15-1.388-2.452-2.629-3.755-3.869c-0.178-0.169-0.333-0.147-0.528-0.086c-1.311,0.412-2.623,0.819-3.934,1.23
	c-0.094,0.03-0.218,0.015-0.269,0.171c0.163,0.178,0.335,0.367,0.508,0.555c0.174,0.189,0.356,0.371,0.522,0.567
	c0.532,0.628,0.536,1.195,0.021,1.836c-0.383,0.477-0.898,0.755-1.463,0.95c-0.442,0.153-0.89,0.287-1.336,0.431
	c-1.968,0.634-3.937,1.269-5.905,1.903c-0.657,0.212-1.321,0.312-2.007,0.145c-0.414-0.101-0.692-0.344-0.866-0.728
	c-0.21-0.46-0.216-0.937-0.137-1.42c0.159-0.982,0.691-1.76,1.378-2.444c0.57-0.567,1.214-1.045,1.894-1.471
	c1.705-1.066,3.453-2.051,5.287-2.883c2.091-0.949,4.241-1.658,6.555-1.814c2.006-0.135,3.878,0.238,5.594,1.309
	c0.465,0.29,0.888,0.627,1.24,1.05c2.048,2.46,3.786,5.12,5.206,7.99c1.409,2.848,2.204,5.82,2.11,9.027
	c-0.071,2.445-0.015,4.893-0.013,7.34c0,0.403,0.003,0.408,0.386,0.408c3.419,0.001,6.837,0.001,10.256,0
	c0.403,0,0.403-0.004,0.409-0.39c0.001-0.03,0-0.06,0-0.091c0-11.162,0.001-22.324-0.001-33.486c0-0.619-0.026-1.24-0.183-1.843
	c-0.477-1.826-1.531-3.223-3.154-4.192c-0.129-0.077-0.297-0.109-0.403-0.293c2.346,0,4.643,0.001,6.941-0.003
	c0.176,0,0.322,0.068,0.475,0.133c1.818,0.77,2.772,2.261,3.355,4.047c0.262,0.8,0.236,1.634,0.235,2.467
	c-0.006,11.026-0.004,22.052-0.003,33.078c0,0.165-0.029,0.332,0.032,0.494c3.57,0.003,7.139,0.005,10.708,0.008
	c0.015,0,0.03,0,0.045,0c0.323-0.013,0.325-0.014,0.336-0.334c0.005-0.121,0.001-0.242,0.001-0.362
	C289.16,77.856,289.159,66.651,289.158,55.445z M40.278,56.489c-5.51,2.153-11.022,4.303-16.534,6.453
	c-0.267,0.104-0.537,0.2-0.803,0.308c-0.16,0.065-0.323,0.082-0.489,0.058c-0.482-0.07-0.659-0.441-0.412-0.858
	c0.101-0.171,0.24-0.31,0.379-0.449c0.909-0.907,1.817-1.816,2.727-2.722c0.339-0.337,0.599-0.716,0.696-1.194
	c0.12-0.591-0.093-0.959-0.673-1.14c-0.319-0.1-0.649-0.139-0.981-0.161c-1.615-0.109-3.233-0.129-4.851-0.123
	c-1.074,0.004-2.147,0.004-3.221-0.001c-0.287-0.001-0.574-0.018-0.859-0.049c-0.686-0.075-0.983-0.682-0.629-1.282
	c0.167-0.284,0.417-0.461,0.732-0.572c1.028-0.36,2.079-0.632,3.14-0.871c2.331-0.526,4.686-0.913,7.062-1.157
	c2.624-0.27,5.253-0.301,7.872,0.076c1.376,0.198,2.744,0.448,4.038,0.984c1.194,0.494,2.224,1.214,3.032,2.231
	c0.065,0.082,0.145,0.155,0.168,0.266C40.575,56.416,40.415,56.435,40.278,56.489z"/>
<path fill="#0B268A" d="M84.812,91.039c-0.511-0.052-1.019-0.133-1.531-0.174c-1.792-0.142-3.585-0.283-5.379-0.404
	c-1.72-0.116-3.443-0.104-5.166-0.064c-0.303,0.007-0.457,0.123-0.578,0.392c-0.561,1.243-0.827,2.539-0.854,3.903
	c-0.037,1.862,0.377,3.617,1.124,5.308c2.713-0.002,5.427-0.003,8.14-0.006c0.18,0,0.361-0.017,0.541-0.026
	c0.009-1.213,0.307-2.36,0.837-3.444c0.603-1.233,1.447-2.224,2.826-2.631c0.132-0.039,0.202-0.098,0.205-0.248
	c0.018-0.784,0.043-1.569,0.07-2.353C85.054,91.121,84.979,91.056,84.812,91.039z"/>
</svg>
